<svg xmlns="http://www.w3.org/2000/svg" width="433" height="154" viewBox="0 0 433 154" version="1.1">
	<path d="M 69.536 14.049 C 61.143 15.361, 54.662 17.603, 46.076 22.162 C 32.661 29.286, 22.589 39.739, 15.468 53.927 C 9.224 66.370, 6.527 84.613, 9.071 97.201 C 10.708 105.300, 14.042 115, 15.189 115 C 15.756 115, 15.912 114.219, 15.538 113.250 C 10.989 101.477, 10.621 99.432, 10.637 86 C 10.651 74.106, 10.968 71.549, 13.301 64.500 C 17.044 53.192, 22.331 44.684, 31.007 36.007 C 39.697 27.317, 48.216 22.029, 59.500 18.318 C 69.909 14.896, 87.739 14.494, 98 17.449 C 118.076 23.233, 134.307 36.546, 143.420 54.704 C 148.334 64.496, 150.340 73.464, 150.307 85.500 C 150.282 94.904, 149.781 97.693, 145.381 112.906 C 144.915 114.519, 145.041 115.093, 145.765 114.646 C 147.651 113.480, 151.094 101.411, 151.943 92.987 C 154.086 71.733, 147.482 51.968, 133.166 36.793 C 119.168 21.954, 103.700 14.661, 83.932 13.578 C 79.295 13.324, 72.816 13.536, 69.536 14.049 M 69.129 22.060 C 45.333 26.307, 24.601 45.904, 18.411 70 C 15.155 82.675, 16.752 100.712, 22.049 111.095 C 24.498 115.896, 25.989 115.619, 23.718 110.786 C 20.278 103.464, 18.659 95.468, 18.700 86 C 18.751 74.182, 19.998 68.790, 25.178 58 C 30.669 46.560, 42.178 34.894, 53.092 29.705 C 77.949 17.887, 105.120 22.231, 123.951 41.032 C 141.666 58.719, 146.856 82.198, 138.439 106.583 C 137.001 110.749, 136.056 114.389, 136.339 114.672 C 137.234 115.567, 139.880 109.460, 142.094 101.391 C 145.063 90.566, 144.469 73.669, 140.770 63.758 C 133.573 44.474, 118.335 29.798, 99.500 24.009 C 91.453 21.536, 77.192 20.621, 69.129 22.060 M 66.575 33.879 C 66.276 34.362, 64.074 34.537, 61.682 34.268 C 56.484 33.682, 51.450 35.918, 49.796 39.548 C 49.182 40.897, 47.835 42, 46.804 42 C 43.888 42, 40.329 44.791, 38.926 48.178 C 38.224 49.873, 36.604 52.305, 35.325 53.584 C 33.723 55.187, 33 57.069, 33 59.640 C 33 62.130, 32.254 64.166, 30.756 65.760 C 28.965 67.666, 28.544 69.196, 28.675 73.325 C 28.765 76.171, 28.845 81.328, 28.853 84.784 C 28.866 90.559, 29.136 91.335, 32.184 94.373 C 34.008 96.191, 35.982 97.863, 36.570 98.089 C 37.159 98.315, 38.509 100.300, 39.570 102.500 C 40.778 105.004, 42.711 107.061, 44.737 108 C 46.517 108.825, 48.236 110.292, 48.557 111.261 C 49.749 114.852, 57.585 117.207, 61 115 C 62.119 114.277, 61.568 114.027, 58.832 114.015 C 53.752 113.994, 52.160 113.209, 50.437 109.879 C 49.619 108.295, 48.346 107, 47.609 107 C 45.154 107, 41.270 103.099, 40.653 100.014 C 40.260 98.051, 39.193 96.644, 37.653 96.058 C 33.217 94.372, 30.899 90.192, 30.996 84.056 C 31.044 81, 30.800 76.669, 30.454 74.431 C 29.921 70.987, 30.222 69.890, 32.412 67.287 C 34.200 65.162, 35 63.039, 35 60.420 C 35 57.960, 35.728 55.854, 37.074 54.421 C 38.215 53.207, 39.902 50.703, 40.824 48.857 C 41.922 46.659, 43.627 45.136, 45.765 44.445 C 47.560 43.864, 50.336 41.839, 51.932 39.945 C 53.854 37.665, 55.167 36.838, 55.817 37.500 C 57.232 38.942, 58.479 55, 57.176 55 C 55.908 55, 53 52.189, 53 50.964 C 53 50.472, 52.070 49.573, 50.933 48.964 C 46.575 46.632, 41.698 53.298, 45.200 56.800 C 46.713 58.313, 50.248 58.352, 51.727 56.873 C 53.617 54.983, 58 56.692, 58 59.319 C 58 62.618, 56.177 63.985, 52.704 63.291 C 50.485 62.847, 49.357 63.159, 48.389 64.483 C 46.645 66.868, 48.314 70.018, 51.285 69.948 C 53.853 69.889, 60 62.795, 60 59.892 C 60 58.534, 60.715 58, 62.531 58 C 65.520 58, 66.799 60.491, 65.158 63.119 C 63.735 65.397, 63.654 68.668, 65 69.500 C 66.198 70.240, 66.357 78, 65.174 78 C 64.720 78, 63.292 76.875, 62 75.500 C 59.909 73.274, 58.848 73, 52.312 73 C 48.276 73, 44.139 72.479, 43.119 71.842 C 39.578 69.631, 35.439 73.415, 38.011 76.513 C 39.596 78.423, 42.409 78.417, 44 76.500 C 44.872 75.449, 47.185 75, 51.728 75 C 57.116 75, 58.694 75.406, 61.069 77.404 C 62.640 78.727, 64.348 79.964, 64.863 80.154 C 66.511 80.763, 66.715 93, 65.077 93 C 63.130 93, 58.113 87.870, 58.661 86.440 C 59.317 84.731, 57.342 82, 55.449 82 C 54.731 82, 53.437 82.706, 52.573 83.569 C 50.672 85.471, 52.090 88.977, 54.785 89.041 C 55.728 89.063, 58.058 90.413, 59.962 92.041 C 61.866 93.668, 64.004 95, 64.712 95 C 66.114 95, 66.520 101.676, 65.235 103.600 C 63.928 105.558, 59.977 107.127, 57.965 106.489 C 55.901 105.834, 54.354 101.854, 55.465 100.057 C 56.525 98.342, 60.312 98.744, 59.638 100.500 C 58.989 102.192, 60.533 102.564, 61.527 100.956 C 63.303 98.083, 56.774 95.626, 54.200 98.200 C 52.346 100.054, 52.780 104.491, 55.013 106.512 C 58.441 109.614, 62.909 108.870, 66.617 104.581 C 69.082 101.729, 70.837 100.697, 73.930 100.283 L 78 99.737 78 104.694 C 78 108.666, 77.512 110.110, 75.542 111.960 C 73.469 113.908, 72.413 114.170, 68.792 113.636 C 64.838 113.052, 64.653 113.121, 66.441 114.501 C 67.509 115.326, 68.986 116, 69.723 116 C 72.404 116, 77.865 113.120, 78.920 111.150 C 79.621 109.839, 80 99.116, 80 80.566 C 80 54.121, 80.415 49.627, 82.542 53.068 C 82.905 53.656, 83.849 53.888, 84.639 53.585 C 85.429 53.282, 86.332 53.701, 86.645 54.517 C 87.434 56.574, 93 56.500, 93 54.433 C 93 53.308, 93.579 53.049, 95.048 53.515 C 97.629 54.334, 100.221 52.271, 99.493 49.977 C 99.164 48.941, 99.559 47.999, 100.470 47.650 C 101.312 47.327, 102 46.135, 102 45 C 102 43.865, 101.312 42.673, 100.470 42.350 C 99.570 42.005, 99.164 41.058, 99.484 40.049 C 100.161 37.918, 96.844 34.739, 94.774 35.533 C 93.905 35.867, 93.003 35.450, 92.660 34.557 C 91.849 32.444, 87 32.486, 87 34.607 C 87 35.687, 86.461 36.007, 85.355 35.583 C 84.448 35.235, 82.927 35.661, 81.961 36.536 C 80.350 37.993, 80.007 37.916, 77.651 35.560 C 75.760 33.670, 74.048 33, 71.104 33 C 68.912 33, 66.874 33.396, 66.575 33.879 M 68.500 35.128 C 67.400 35.664, 65.015 38.358, 63.200 41.115 C 60.360 45.430, 59.942 46.850, 60.200 51.314 C 60.466 55.917, 60.769 56.538, 62.887 56.837 C 66.101 57.292, 67.182 55.207, 65.255 52.267 C 63.797 50.041, 63.830 49.726, 65.721 47.835 C 67.400 46.156, 68.128 45.998, 69.878 46.935 C 72.541 48.360, 72.654 52.287, 70.086 54.128 C 69.033 54.883, 67.879 56.931, 67.521 58.680 C 66.994 61.262, 67.261 62.069, 68.936 62.966 C 71.359 64.263, 71.741 68.778, 69.500 69.638 C 68.352 70.079, 68 71.966, 68 77.680 L 68 85.145 70.635 83.073 C 72.084 81.933, 74.334 81, 75.635 81 L 78 81 78.079 66.250 C 78.212 41.257, 78.046 38.664, 76.189 36.855 C 73.901 34.625, 70.913 33.954, 68.500 35.128 M 88.187 36.630 C 87.686 37.526, 86.201 38.322, 84.888 38.397 C 83.164 38.496, 82.588 39.042, 82.815 40.359 C 82.988 41.363, 82.313 42.786, 81.315 43.521 C 79.600 44.784, 79.596 44.895, 81.250 45.536 C 82.240 45.919, 83 47.253, 83 48.607 C 83 50.346, 83.555 51, 85.031 51 C 86.149 51, 87.322 51.675, 87.638 52.500 C 88.329 54.299, 90.671 54.488, 91.236 52.791 C 91.458 52.126, 92.958 51.523, 94.570 51.450 C 97.130 51.335, 97.459 50.983, 97.178 48.659 C 96.950 46.772, 97.313 46, 98.428 46 C 100.478 46, 100.455 44.388, 98.394 43.598 C 97.285 43.172, 96.970 42.256, 97.376 40.639 C 98.083 37.823, 97.161 36.622, 95.409 38.076 C 94.476 38.850, 93.580 38.580, 92.067 37.067 C 89.576 34.576, 89.351 34.551, 88.187 36.630 M 58.070 37.750 C 58.109 38.712, 58.459 40.308, 58.849 41.295 C 59.476 42.883, 59.807 42.753, 61.725 40.158 C 64.123 36.915, 63.817 36, 60.333 36 C 58.751 36, 58.023 36.563, 58.070 37.750 M 87.750 41.080 C 85.612 42.326, 85.460 46.307, 87.487 47.989 C 89.358 49.542, 93.573 48.555, 94.412 46.368 C 95.144 44.462, 92.541 39.985, 90.727 40.030 C 90.052 40.047, 88.713 40.519, 87.750 41.080 M 88.667 42.667 C 87.202 44.132, 88.045 47, 89.941 47 C 92.297 47, 93.215 45.725, 92.396 43.590 C 91.770 41.957, 89.851 41.482, 88.667 42.667 M 234 65.345 C 234 83.207, 234.148 84.824, 235.936 86.442 C 237.677 88.018, 244.272 89.069, 245.381 87.947 C 246.480 86.836, 244.618 82.133, 242.901 81.684 C 241.124 81.220, 241 80.040, 241 63.594 L 241 46 237.500 46 L 234 46 234 65.345 M 250.980 48.038 C 248.684 52.327, 252.673 56.316, 256.962 54.020 C 259.215 52.815, 259.674 49.074, 257.800 47.200 C 255.926 45.326, 252.185 45.785, 250.980 48.038 M 270.456 48.284 C 268.468 49.994, 267.800 51.503, 267.800 54.284 C 267.800 57.268, 267.426 58, 265.900 58 C 264.456 58, 264 58.719, 264 61 C 264 63.333, 264.444 64, 266 64 C 267.889 64, 268 64.667, 268 76 L 268 88 271.468 88 L 274.937 88 275.218 76.250 L 275.500 64.500 279.750 64.193 C 283.717 63.905, 284 63.689, 284 60.943 C 284 58.122, 283.814 58, 279.500 58 C 275.764 58, 275 57.681, 275 56.122 C 275 53.293, 277.581 51.666, 280.990 52.348 C 283.589 52.868, 284.060 52.611, 284.623 50.365 C 285.455 47.051, 283.862 46.035, 277.806 46.015 C 274.343 46.004, 272.415 46.599, 270.456 48.284 M 66.694 49.639 C 65.761 50.573, 66.888 52, 68.559 52 C 69.352 52, 70 51.325, 70 50.500 C 70 48.994, 67.889 48.444, 66.694 49.639 M 166 68.500 L 166 88 179.563 88 L 193.127 88 192.813 84.750 L 192.500 81.500 183.250 81.212 L 174 80.925 174 75.962 L 174 71 182 71 L 190 71 190 67.500 L 190 64 182 64 L 174 64 174 59.500 L 174 55 183 55 L 192 55 192 52 L 192 49 179 49 L 166 49 166 68.500 M 335.775 68.563 L 329.050 88.113 333.197 87.806 C 337.107 87.518, 337.426 87.255, 338.769 83.210 L 340.194 78.919 347.767 79.210 L 355.339 79.500 356.753 83.750 C 358.101 87.802, 358.352 88, 362.151 88 C 365.823 88, 366.080 87.824, 365.436 85.750 C 365.052 84.513, 362.046 75.737, 358.757 66.250 L 352.775 49 347.638 49.006 L 342.500 49.013 335.775 68.563 M 372 68.500 L 372 88 376 88 L 380 88 380 68.500 L 380 49 376 49 L 372 49 372 68.500 M 47.152 50.885 C 45.179 52.135, 46.177 55.451, 48.633 55.803 C 51.140 56.162, 52.561 53.381, 50.895 51.373 C 49.577 49.785, 49.005 49.710, 47.152 50.885 M 106.337 51.477 C 103.421 53.519, 102.613 57.517, 104.394 61.088 C 105.838 63.983, 105.809 64.053, 102.562 65.410 C 100.747 66.168, 98.528 67.836, 97.631 69.117 C 95.828 71.690, 95.433 76, 97 76 C 97.550 76, 98.007 74.987, 98.015 73.750 C 98.036 70.774, 98.909 69.597, 102.458 67.759 C 105.059 66.411, 105.684 66.402, 107.641 67.684 C 109.317 68.782, 110.360 68.878, 111.867 68.071 C 114.844 66.478, 117.497 66.765, 120.139 68.967 C 121.438 70.048, 122.050 70.963, 121.500 70.999 C 120.950 71.035, 117.651 71.196, 114.168 71.356 C 106.660 71.701, 106.036 72.382, 106.015 80.250 L 106 86 97.622 86 C 91.653 86, 88.910 86.403, 88.080 87.403 C 87.342 88.293, 87.023 91.859, 87.208 97.153 C 87.472 104.709, 87.713 105.594, 89.750 106.487 C 91.130 107.092, 92 108.350, 92 109.737 C 92 112.708, 94.079 112.610, 97 109.500 C 98.927 107.449, 100.291 107, 104.603 107 C 111.505 107, 113 105.474, 113 98.429 C 113 95.443, 112.550 93, 112 93 C 111.450 93, 111 95.160, 111 97.800 C 111 100.440, 110.460 103.140, 109.800 103.800 C 109.140 104.460, 106.270 105, 103.422 105 C 100.040 105, 97.813 105.520, 97 106.500 C 95.427 108.396, 94 108.429, 94 106.570 C 94 105.783, 92.987 104.995, 91.750 104.820 C 89.631 104.519, 89.500 104.035, 89.500 96.500 L 89.500 88.500 97.384 88.206 C 104.260 87.949, 105.512 88.172, 107.173 89.956 C 108.616 91.504, 110.328 92, 114.234 92 C 118.429 92, 119.898 92.486, 122.114 94.609 C 124.796 97.178, 127 97.154, 127 94.556 C 127 93.827, 128.142 92.482, 129.538 91.567 C 131.976 89.970, 132.065 89.559, 131.788 81.231 L 131.500 72.559 127.756 71.511 C 125.697 70.935, 123.334 69.495, 122.505 68.311 C 121.676 67.127, 119.616 65.855, 117.928 65.484 C 115.554 64.963, 115.023 64.435, 115.582 63.155 C 117.468 58.837, 117.232 54.875, 114.942 52.439 C 112.332 49.660, 109.398 49.332, 106.337 51.477 M 292.500 51.873 C 290.167 52.368, 289.430 53.120, 289.184 55.255 C 288.960 57.193, 288.299 58, 286.934 58 C 285.452 58, 285 58.701, 285 61 C 285 63.270, 285.458 64, 286.881 64 C 288.561 64, 288.806 65.016, 289.178 73.525 C 289.558 82.207, 289.828 83.283, 292.237 85.691 C 294.326 87.781, 295.840 88.333, 299.473 88.333 C 304.935 88.333, 306.344 87.219, 305.439 83.614 C 304.925 81.566, 304.327 81.079, 302.884 81.537 C 301.848 81.866, 300.100 81.849, 299 81.500 C 297.208 80.931, 297 79.987, 297 72.433 L 297 64 301 64 C 304.778 64, 305 63.833, 305 61 C 305 58.167, 304.778 58, 301 58 C 297.095 58, 297 57.917, 297 54.500 C 297 52.575, 296.663 51.053, 296.250 51.118 C 295.837 51.183, 294.150 51.523, 292.500 51.873 M 106.333 54.615 C 104.797 56.959, 104.772 57.504, 106.093 59.865 C 107.895 63.086, 111.875 63.892, 113.694 61.404 C 116.469 57.608, 114.237 52, 109.952 52 C 108.904 52, 107.275 53.177, 106.333 54.615 M 344.678 64.443 L 342.137 72 347.509 72 L 352.881 72 350.445 64.838 C 349.105 60.898, 347.831 57.498, 347.614 57.281 C 347.397 57.063, 346.076 60.286, 344.678 64.443 M 199 73 L 199 88 202.366 88 L 205.733 88 206.223 77.826 C 206.657 68.797, 206.966 67.446, 208.967 65.826 C 211.554 63.731, 215.052 63.452, 216.800 65.200 C 217.585 65.985, 218 70.133, 218 77.200 L 218 88 222.103 88 L 226.206 88 225.853 75.413 C 225.506 63.052, 225.450 62.783, 222.694 60.413 C 218.337 56.666, 210.743 57.405, 207.282 61.913 C 206.234 63.278, 206.059 63.116, 206.032 60.750 C 206.003 58.280, 205.644 58, 202.500 58 L 199 58 199 73 M 251 73 L 251 88 254.500 88 L 258 88 258.125 77.500 C 258.375 56.531, 258.648 58, 254.500 58 L 251 58 251 73 M 49.694 65.639 C 48.761 66.573, 49.888 68, 51.559 68 C 52.352 68, 53 67.325, 53 66.500 C 53 64.994, 50.889 64.444, 49.694 65.639 M 65.694 65.639 C 64.761 66.573, 65.888 68, 67.559 68 C 68.352 68, 69 67.325, 69 66.500 C 69 64.994, 66.889 64.444, 65.694 65.639 M 108.500 66 C 108.840 66.550, 109.766 67, 110.559 67 C 111.352 67, 112 66.550, 112 66 C 112 65.450, 111.073 65, 109.941 65 C 108.809 65, 108.160 65.450, 108.500 66 M 310 69 L 310 72 318 72 L 326 72 326 69 L 326 66 318 66 L 310 66 310 69 M 39.459 74.067 C 38.539 75.556, 39.606 76.365, 41.520 75.631 C 42.404 75.292, 42.847 74.561, 42.504 74.007 C 41.694 72.696, 40.289 72.723, 39.459 74.067 M 109.137 74.335 C 108.351 75.282, 108.012 78.300, 108.202 82.660 L 108.500 89.500 114.496 89.807 C 118.845 90.030, 121.086 90.672, 122.652 92.143 C 124.794 94.155, 124.816 94.155, 125.439 92.193 C 125.784 91.106, 126.951 89.984, 128.033 89.702 C 129.771 89.247, 130 88.304, 130 81.594 C 130 77.417, 129.887 73.962, 129.750 73.915 C 129.613 73.868, 125.196 73.610, 119.934 73.340 C 112.260 72.947, 110.125 73.144, 109.137 74.335 M 114 77 C 114 77.556, 116.667 78, 120 78 C 123.333 78, 126 77.556, 126 77 C 126 76.444, 123.333 76, 120 76 C 116.667 76, 114 76.444, 114 77 M 113.583 80.865 C 112.972 81.854, 123.650 83.334, 125.068 82.458 C 125.581 82.141, 126 81.459, 126 80.941 C 126 79.760, 114.311 79.688, 113.583 80.865 M 38.667 83.667 C 37.153 85.180, 38.066 88.886, 40.112 89.535 C 42.924 90.428, 45.428 87.924, 44.535 85.112 C 43.886 83.066, 40.180 82.153, 38.667 83.667 M 70.589 86.077 C 68.582 88.462, 68 90.244, 68 94.007 L 68 98.861 72.992 98.680 L 77.984 98.500 77.992 90.750 C 78 83.224, 77.930 83, 75.589 83 C 74.124 83, 72.162 84.208, 70.589 86.077 M 54 85.417 C 54 86.287, 54.712 87, 55.583 87 C 56.454 87, 56.989 86.466, 56.771 85.813 C 56.153 83.958, 54 83.651, 54 85.417 M 114 85 C 114 85.556, 116.667 86, 120 86 C 123.333 86, 126 85.556, 126 85 C 126 84.444, 123.333 84, 120 84 C 116.667 84, 114 84.444, 114 85 M 40 86.500 C 40 87.417, 40.484 88.005, 41.075 87.808 C 41.666 87.611, 42.150 87.023, 42.150 86.500 C 42.150 85.977, 41.666 85.389, 41.075 85.192 C 40.484 84.995, 40 85.583, 40 86.500 M 93.694 91.639 C 92.228 93.105, 94.450 94, 99.559 94 C 103.729 94, 105 93.650, 105 92.500 C 105 91.354, 103.741 91, 99.667 91 C 96.733 91, 94.046 91.288, 93.694 91.639 M 93.531 95.949 C 92.853 97.048, 98.648 98.333, 102.041 97.837 C 103.307 97.652, 104.529 96.938, 104.755 96.250 C 105.253 94.737, 94.459 94.448, 93.531 95.949 M 93.500 100 C 93.114 100.625, 95.156 101, 98.941 101 C 102.314 101, 105 100.557, 105 100 C 105 99.450, 102.552 99, 99.559 99 C 96.566 99, 93.840 99.450, 93.500 100 M 62.768 124 C 61.575 125.911, 60.436 126, 37.259 126 C 21.753 126, 13 126.361, 13 127 C 13 127.639, 21.793 128, 37.378 128 C 57.827 128, 61.956 128.242, 63 129.500 C 65.641 132.683, 71 130.673, 71 126.500 C 71 122.030, 65.114 120.243, 62.768 124 M 76.565 123.928 C 72.905 127.972, 77.971 133.559, 82.567 130.548 C 85.356 128.720, 85.710 125.853, 83.429 123.571 C 81.312 121.455, 78.679 121.592, 76.565 123.928 M 90.200 123.200 C 88.890 124.510, 88.658 126.944, 89.607 129.418 C 90.406 131.501, 96.569 131.566, 97.362 129.500 C 97.851 128.224, 101.530 128, 121.969 128 C 137.323 128, 146 127.639, 146 127 C 146 126.361, 137.414 126, 122.241 126 C 99.564 126, 98.424 125.909, 97.232 124 C 95.845 121.779, 92.053 121.347, 90.200 123.200 M 64.364 125.493 C 64.018 126.396, 64.214 127.614, 64.800 128.200 C 66.324 129.724, 69.210 128.331, 68.812 126.265 C 68.369 123.963, 65.165 123.407, 64.364 125.493 M 78.667 124.667 C 77.224 126.110, 78.042 129, 79.893 129 C 82.179 129, 83.276 126.676, 81.722 125.122 C 80.438 123.838, 79.618 123.716, 78.667 124.667 M 92.014 124.992 C 90.199 126.113, 91.600 129.224, 93.735 128.812 C 94.693 128.628, 95.617 127.751, 95.788 126.864 C 96.153 124.966, 93.880 123.838, 92.014 124.992 M 101 132.864 C 94.367 135.118, 91.881 135.413, 79.500 135.410 C 67.794 135.408, 64.438 135.052, 59.018 133.236 C 55.356 132.010, 52.157 131.443, 51.668 131.932 C 50.650 132.950, 58.532 135.371, 68.390 137.068 C 80.885 139.219, 100.280 136.860, 108.662 132.169 C 112.356 130.102, 107.952 130.501, 101 132.864" stroke="none" fill="#A855F7" fill-rule="evenodd"/>
</svg>