<svg xmlns="http://www.w3.org/2000/svg" width="500" height="500" viewBox="0 0 500 500" version="1.1">
	<path d="M 82.536 196.049 C 70.346 197.955, 56.124 204.361, 46.862 212.115 C 30.004 226.230, 20.035 249.406, 21.318 271.500 C 21.865 280.920, 26.174 297, 28.150 297 C 28.754 297, 28.922 296.243, 28.538 295.250 C 23.989 283.477, 23.621 281.432, 23.637 268 C 23.651 256.106, 23.968 253.549, 26.301 246.500 C 30.044 235.192, 35.331 226.684, 44.007 218.007 C 52.697 209.317, 61.216 204.029, 72.500 200.318 C 82.909 196.896, 100.739 196.494, 111 199.449 C 131.076 205.233, 147.307 218.546, 156.420 236.704 C 161.334 246.496, 163.340 255.464, 163.307 267.500 C 163.282 276.904, 162.781 279.693, 158.381 294.906 C 157.915 296.519, 158.041 297.093, 158.765 296.646 C 160.651 295.480, 164.094 283.411, 164.943 274.987 C 167.086 253.733, 160.482 233.968, 146.166 218.793 C 132.168 203.954, 116.700 196.661, 96.932 195.578 C 92.295 195.324, 85.816 195.536, 82.536 196.049 M 82.129 204.060 C 58.333 208.307, 37.601 227.904, 31.411 252 C 28.155 264.675, 29.752 282.712, 35.049 293.095 C 37.498 297.896, 38.989 297.619, 36.718 292.786 C 33.278 285.464, 31.659 277.468, 31.700 268 C 31.751 256.170, 33.001 250.778, 38.190 240 C 41.393 233.349, 43.939 229.850, 49.892 223.915 C 58.463 215.369, 63.792 211.939, 74.267 208.226 C 83.847 204.830, 102.325 204.409, 111 207.389 C 130.524 214.095, 144.237 226.738, 151.047 244.309 C 156.623 258.697, 156.751 273.192, 151.439 288.583 C 150.001 292.749, 149.056 296.389, 149.339 296.672 C 150.234 297.567, 152.880 291.460, 155.094 283.391 C 158.063 272.566, 157.469 255.669, 153.770 245.758 C 146.573 226.474, 131.335 211.798, 112.500 206.009 C 104.453 203.536, 90.192 202.621, 82.129 204.060 M 79.575 215.879 C 79.276 216.362, 77.074 216.537, 74.682 216.268 C 69.484 215.682, 64.450 217.918, 62.796 221.548 C 62.182 222.897, 60.835 224, 59.804 224 C 56.888 224, 53.329 226.791, 51.926 230.178 C 51.224 231.873, 49.604 234.305, 48.325 235.584 C 46.723 237.187, 46 239.069, 46 241.640 C 46 244.130, 45.254 246.166, 43.756 247.760 C 41.965 249.666, 41.544 251.196, 41.675 255.325 C 41.765 258.171, 41.845 263.328, 41.853 266.784 C 41.866 272.559, 42.136 273.335, 45.184 276.373 C 47.008 278.191, 48.982 279.863, 49.570 280.089 C 50.159 280.315, 51.509 282.300, 52.570 284.500 C 53.778 287.004, 55.711 289.061, 57.737 290 C 59.517 290.825, 61.236 292.292, 61.557 293.261 C 62.749 296.852, 70.585 299.207, 74 297 C 75.119 296.277, 74.568 296.027, 71.832 296.015 C 66.752 295.994, 65.160 295.209, 63.437 291.879 C 62.619 290.295, 61.346 289, 60.609 289 C 58.154 289, 54.270 285.099, 53.653 282.014 C 53.260 280.051, 52.193 278.644, 50.653 278.058 C 46.217 276.372, 43.899 272.192, 43.996 266.056 C 44.044 263, 43.800 258.669, 43.454 256.431 C 42.921 252.987, 43.222 251.890, 45.412 249.287 C 47.200 247.162, 48 245.039, 48 242.420 C 48 239.960, 48.728 237.854, 50.074 236.421 C 51.215 235.207, 52.902 232.703, 53.824 230.857 C 54.922 228.659, 56.627 227.136, 58.765 226.445 C 60.560 225.864, 63.359 223.839, 64.985 221.945 C 67.324 219.220, 68.135 218.791, 68.867 219.890 C 69.862 221.386, 71.480 235.853, 70.735 236.598 C 69.827 237.506, 67.058 235.759, 66.470 233.907 C 66.137 232.857, 64.965 231.516, 63.865 230.928 C 59.569 228.629, 54.739 235.339, 58.200 238.800 C 59.713 240.313, 63.248 240.352, 64.727 238.873 C 66.617 236.983, 71 238.692, 71 241.319 C 71 244.629, 69.224 245.911, 65.479 245.303 C 62.815 244.871, 61.973 245.182, 61.027 246.949 C 59.586 249.642, 61.181 252.026, 64.372 251.948 C 66.854 251.888, 73 244.724, 73 241.892 C 73 240.534, 73.715 240, 75.531 240 C 78.520 240, 79.799 242.491, 78.158 245.119 C 76.735 247.397, 76.654 250.668, 78 251.500 C 79.198 252.240, 79.357 260, 78.174 260 C 77.720 260, 76.292 258.875, 75 257.500 C 72.909 255.274, 71.848 255, 65.312 255 C 61.276 255, 57.139 254.479, 56.119 253.842 C 52.578 251.631, 48.439 255.415, 51.011 258.513 C 52.596 260.423, 55.409 260.417, 57 258.500 C 57.872 257.449, 60.185 257, 64.728 257 C 70.116 257, 71.694 257.406, 74.069 259.404 C 75.640 260.727, 77.348 261.964, 77.863 262.154 C 79.511 262.763, 79.715 275, 78.077 275 C 76.130 275, 71.113 269.870, 71.661 268.440 C 72.317 266.731, 70.342 264, 68.449 264 C 67.731 264, 66.437 264.706, 65.573 265.569 C 63.672 267.471, 65.090 270.977, 67.785 271.041 C 68.728 271.063, 71.058 272.413, 72.962 274.041 C 74.866 275.668, 77.004 277, 77.712 277 C 79.114 277, 79.520 283.676, 78.235 285.600 C 76.928 287.558, 72.977 289.127, 70.965 288.489 C 68.901 287.834, 67.354 283.854, 68.465 282.057 C 69.525 280.342, 73.312 280.744, 72.638 282.500 C 71.989 284.192, 73.533 284.564, 74.527 282.956 C 76.303 280.083, 69.774 277.626, 67.200 280.200 C 65.346 282.054, 65.780 286.491, 68.013 288.512 C 71.441 291.614, 75.909 290.870, 79.617 286.581 C 82.082 283.729, 83.837 282.697, 86.930 282.283 L 91 281.737 91 286.694 C 91 290.666, 90.512 292.110, 88.542 293.960 C 86.469 295.908, 85.413 296.170, 81.792 295.636 C 77.838 295.052, 77.653 295.121, 79.441 296.501 C 80.509 297.326, 81.986 298, 82.723 298 C 85.404 298, 90.865 295.120, 91.920 293.150 C 92.621 291.839, 93 281.116, 93 262.566 C 93 236.121, 93.415 231.627, 95.542 235.068 C 95.905 235.656, 96.849 235.888, 97.639 235.585 C 98.429 235.282, 99.332 235.701, 99.645 236.517 C 100.434 238.574, 106 238.500, 106 236.433 C 106 235.308, 106.579 235.049, 108.048 235.515 C 110.629 236.334, 113.221 234.271, 112.493 231.977 C 112.164 230.941, 112.559 229.999, 113.470 229.650 C 114.312 229.327, 115 228.135, 115 227 C 115 225.865, 114.312 224.673, 113.470 224.350 C 112.570 224.005, 112.164 223.058, 112.484 222.049 C 113.161 219.918, 109.844 216.739, 107.774 217.533 C 106.905 217.867, 106.003 217.450, 105.660 216.557 C 104.849 214.444, 100 214.486, 100 216.607 C 100 217.687, 99.461 218.007, 98.355 217.583 C 97.448 217.235, 95.927 217.661, 94.961 218.536 C 93.350 219.993, 93.007 219.916, 90.651 217.560 C 88.760 215.670, 87.048 215, 84.104 215 C 81.912 215, 79.874 215.396, 79.575 215.879 M 80.434 217.765 C 79.848 218.169, 77.912 220.640, 76.132 223.256 C 73.333 227.369, 72.937 228.720, 73.198 233.256 C 73.467 237.919, 73.764 238.537, 75.887 238.837 C 79.101 239.292, 80.182 237.207, 78.255 234.267 C 76.797 232.041, 76.830 231.726, 78.721 229.835 C 80.400 228.156, 81.128 227.998, 82.878 228.935 C 85.529 230.354, 85.657 234.278, 83.113 236.128 C 80.148 238.284, 79.573 242.654, 81.982 244.717 C 84.349 246.743, 84.653 250.812, 82.500 251.638 C 81.352 252.079, 81 253.966, 81 259.680 L 81 267.145 83.635 265.073 C 85.084 263.933, 87.334 263, 88.635 263 L 91 263 91 241.655 C 91 222.246, 90.834 220.160, 89.171 218.655 C 87.296 216.958, 82.338 216.453, 80.434 217.765 M 101.187 218.630 C 100.686 219.526, 99.201 220.322, 97.888 220.397 C 96.164 220.496, 95.588 221.042, 95.815 222.359 C 95.988 223.363, 95.313 224.786, 94.315 225.521 C 92.600 226.784, 92.596 226.895, 94.250 227.536 C 95.240 227.919, 96 229.253, 96 230.607 C 96 232.346, 96.555 233, 98.031 233 C 99.149 233, 100.322 233.675, 100.638 234.500 C 101.329 236.299, 103.671 236.488, 104.236 234.791 C 104.458 234.126, 105.958 233.523, 107.570 233.450 C 110.130 233.335, 110.459 232.983, 110.178 230.659 C 109.950 228.772, 110.313 228, 111.428 228 C 113.478 228, 113.455 226.388, 111.394 225.598 C 110.285 225.172, 109.970 224.256, 110.376 222.639 C 111.083 219.823, 110.161 218.622, 108.409 220.076 C 107.476 220.850, 106.580 220.580, 105.067 219.067 C 102.576 216.576, 102.351 216.551, 101.187 218.630 M 71.070 219.750 C 71.109 220.713, 71.459 222.308, 71.849 223.295 C 72.476 224.883, 72.807 224.753, 74.725 222.158 C 77.123 218.915, 76.817 218, 73.333 218 C 71.751 218, 71.023 218.563, 71.070 219.750 M 100.750 223.080 C 98.612 224.326, 98.460 228.307, 100.487 229.989 C 102.358 231.542, 106.573 230.555, 107.412 228.368 C 108.144 226.462, 105.541 221.985, 103.727 222.030 C 103.052 222.047, 101.713 222.519, 100.750 223.080 M 101.667 224.667 C 100.202 226.132, 101.045 229, 102.941 229 C 105.297 229, 106.215 227.725, 105.396 225.590 C 104.770 223.957, 102.851 223.482, 101.667 224.667 M 247 247.345 C 247 265.207, 247.148 266.824, 248.936 268.442 C 250.677 270.018, 257.272 271.069, 258.381 269.947 C 259.480 268.836, 257.618 264.133, 255.901 263.684 C 254.124 263.220, 254 262.040, 254 245.594 L 254 228 250.500 228 L 247 228 247 247.345 M 263.980 230.038 C 261.684 234.327, 265.673 238.316, 269.962 236.020 C 272.215 234.815, 272.674 231.074, 270.800 229.200 C 268.926 227.326, 265.185 227.785, 263.980 230.038 M 283.456 230.284 C 281.468 231.994, 280.800 233.503, 280.800 236.284 C 280.800 239.268, 280.426 240, 278.900 240 C 277.456 240, 277 240.719, 277 243 C 277 245.333, 277.444 246, 279 246 C 280.889 246, 281 246.667, 281 258 L 281 270 284.468 270 L 287.937 270 288.218 258.250 L 288.500 246.500 292.750 246.193 C 296.717 245.905, 297 245.689, 297 242.943 C 297 240.122, 296.814 240, 292.500 240 C 288.764 240, 288 239.681, 288 238.122 C 288 235.293, 290.581 233.666, 293.990 234.348 C 296.549 234.860, 297.062 234.600, 297.582 232.529 C 298.506 228.848, 297.367 228, 291.497 228 C 287.330 228, 285.511 228.517, 283.456 230.284 M 79.694 231.639 C 78.761 232.573, 79.888 234, 81.559 234 C 82.352 234, 83 233.325, 83 232.500 C 83 230.994, 80.889 230.444, 79.694 231.639 M 179 250.500 L 179 270 192.563 270 L 206.127 270 205.813 266.750 L 205.500 263.500 196.250 263.212 L 187 262.925 187 257.962 L 187 253 195 253 L 203 253 203 249.500 L 203 246 195 246 L 187 246 187 241.500 L 187 237 196 237 L 205 237 205 234 L 205 231 192 231 L 179 231 179 250.500 M 348.775 250.563 L 342.050 270.113 346.197 269.806 C 350.107 269.518, 350.426 269.255, 351.769 265.210 L 353.194 260.919 360.767 261.210 L 368.339 261.500 369.753 265.750 C 371.101 269.802, 371.352 270, 375.151 270 C 378.823 270, 379.080 269.824, 378.436 267.750 C 378.052 266.512, 375.046 257.738, 371.757 248.250 L 365.775 231 360.638 231.006 L 355.500 231.013 348.775 250.563 M 385 250.500 L 385 270 389 270 L 393 270 393 250.500 L 393 231 389 231 L 385 231 385 250.500 M 60.152 232.885 C 58.179 234.135, 59.177 237.451, 61.633 237.803 C 64.140 238.162, 65.561 235.381, 63.895 233.373 C 62.577 231.785, 62.005 231.710, 60.152 232.885 M 119.337 233.477 C 116.421 235.519, 115.613 239.517, 117.394 243.088 C 118.838 245.983, 118.809 246.053, 115.562 247.410 C 113.747 248.168, 111.528 249.836, 110.631 251.117 C 108.828 253.690, 108.433 258, 110 258 C 110.550 258, 111.007 256.988, 111.015 255.750 C 111.036 252.774, 111.909 251.597, 115.458 249.759 C 118.059 248.411, 118.684 248.402, 120.641 249.684 C 122.317 250.782, 123.360 250.878, 124.867 250.071 C 127.730 248.539, 130.193 248.744, 133.027 250.750 C 135.493 252.495, 135.480 252.502, 128.170 253.070 C 123.415 253.439, 120.523 254.142, 119.936 255.070 C 119.438 255.856, 119.024 259.087, 119.015 262.250 L 119 268 110.622 268 C 104.653 268, 101.910 268.403, 101.080 269.403 C 100.342 270.293, 100.023 273.859, 100.208 279.153 C 100.472 286.709, 100.713 287.594, 102.750 288.487 C 104.130 289.092, 105 290.350, 105 291.737 C 105 294.708, 107.079 294.610, 110 291.500 C 111.927 289.449, 113.291 289, 117.603 289 C 124.505 289, 126 287.474, 126 280.429 C 126 277.443, 125.550 275, 125 275 C 124.450 275, 124 277.160, 124 279.800 C 124 282.440, 123.460 285.140, 122.800 285.800 C 122.140 286.460, 119.270 287, 116.422 287 C 113.040 287, 110.813 287.520, 110 288.500 C 108.427 290.396, 107 290.429, 107 288.570 C 107 287.783, 105.987 286.995, 104.750 286.820 C 102.631 286.519, 102.500 286.035, 102.500 278.500 L 102.500 270.500 110.209 270.209 C 116.868 269.957, 118.195 270.195, 119.959 271.959 C 121.490 273.490, 123.298 274, 127.195 274 C 131.432 274, 132.893 274.481, 135.114 276.609 C 137.796 279.178, 140 279.154, 140 276.556 C 140 275.827, 141.142 274.482, 142.538 273.567 C 144.976 271.970, 145.065 271.559, 144.788 263.237 L 144.500 254.570 141 253.578 C 139.075 253.033, 136.707 251.589, 135.738 250.370 C 134.769 249.151, 132.599 247.851, 130.917 247.482 C 128.553 246.963, 128.023 246.434, 128.582 245.155 C 130.468 240.837, 130.232 236.875, 127.942 234.439 C 125.332 231.660, 122.398 231.332, 119.337 233.477 M 305.500 233.873 C 303.167 234.368, 302.430 235.120, 302.184 237.255 C 301.960 239.193, 301.299 240, 299.934 240 C 298.452 240, 298 240.701, 298 243 C 298 245.270, 298.458 246, 299.881 246 C 301.561 246, 301.806 247.016, 302.178 255.525 C 302.558 264.207, 302.828 265.283, 305.237 267.691 C 307.326 269.781, 308.840 270.333, 312.473 270.333 C 317.935 270.333, 319.344 269.219, 318.439 265.614 C 317.925 263.566, 317.327 263.079, 315.884 263.537 C 314.848 263.866, 313.100 263.849, 312 263.500 C 310.208 262.931, 310 261.987, 310 254.433 L 310 246 314 246 C 317.778 246, 318 245.833, 318 243 C 318 240.167, 317.778 240, 314 240 C 310.095 240, 310 239.917, 310 236.500 C 310 234.575, 309.663 233.053, 309.250 233.118 C 308.837 233.183, 307.150 233.523, 305.500 233.873 M 119.333 236.615 C 117.797 238.959, 117.772 239.504, 119.093 241.865 C 120.895 245.086, 124.875 245.892, 126.694 243.404 C 129.469 239.608, 127.237 234, 122.952 234 C 121.904 234, 120.275 235.177, 119.333 236.615 M 357.678 246.443 L 355.137 254 360.509 254 L 365.881 254 363.445 246.838 C 362.105 242.898, 360.831 239.498, 360.614 239.281 C 360.397 239.063, 359.076 242.286, 357.678 246.443 M 212 255 L 212 270 215.366 270 L 218.733 270 219.223 259.826 C 219.657 250.797, 219.966 249.446, 221.967 247.826 C 224.554 245.731, 228.052 245.452, 229.800 247.200 C 230.585 247.985, 231 252.133, 231 259.200 L 231 270 235.103 270 L 239.206 270 238.853 257.413 C 238.506 245.052, 238.450 244.783, 235.694 242.413 C 231.337 238.666, 223.743 239.405, 220.282 243.913 C 219.234 245.278, 219.059 245.116, 219.032 242.750 C 219.003 240.280, 218.644 240, 215.500 240 L 212 240 212 255 M 264 254.940 L 264 270 267.500 270 C 269.425 270, 271.006 269.663, 271.013 269.250 C 271.020 268.837, 271.132 262.200, 271.261 254.500 L 271.496 240.500 267.748 240.190 L 264 239.879 264 254.940 M 62.694 247.639 C 61.761 248.573, 62.888 250, 64.559 250 C 65.352 250, 66 249.325, 66 248.500 C 66 246.994, 63.889 246.444, 62.694 247.639 M 78.694 247.639 C 77.761 248.573, 78.888 250, 80.559 250 C 81.352 250, 82 249.325, 82 248.500 C 82 246.994, 79.889 246.444, 78.694 247.639 M 121.500 248 C 121.840 248.550, 122.766 249, 123.559 249 C 124.352 249, 125 248.550, 125 248 C 125 247.450, 124.073 247, 122.941 247 C 121.809 247, 121.160 247.450, 121.500 248 M 323 251 L 323 254 331 254 L 339 254 339 251 L 339 248 331 248 L 323 248 323 251 M 52.543 255.931 C 51.803 257.128, 53.684 258.313, 55.016 257.490 C 56.135 256.799, 55.400 255, 54 255 C 53.515 255, 52.859 255.419, 52.543 255.931 M 122.136 256.336 C 121.351 257.282, 121.013 260.301, 121.202 264.660 L 121.500 271.500 127.496 271.807 C 131.845 272.030, 134.086 272.672, 135.652 274.143 C 137.794 276.155, 137.816 276.155, 138.439 274.193 C 138.784 273.106, 139.951 271.984, 141.033 271.702 C 142.771 271.247, 143 270.304, 143 263.594 C 143 259.417, 142.887 255.969, 142.750 255.932 C 142.613 255.894, 138.195 255.636, 132.934 255.358 C 125.247 254.951, 123.126 255.143, 122.136 256.336 M 127 259 C 127 259.556, 129.667 260, 133 260 C 136.333 260, 139 259.556, 139 259 C 139 258.444, 136.333 258, 133 258 C 129.667 258, 127 258.444, 127 259 M 126.570 262.886 C 125.926 263.929, 136.491 265.433, 137.983 264.511 C 138.542 264.165, 139 263.459, 139 262.941 C 139 261.747, 127.306 261.695, 126.570 262.886 M 51.667 265.667 C 50.153 267.180, 51.066 270.886, 53.112 271.535 C 55.924 272.428, 58.428 269.924, 57.535 267.112 C 56.886 265.066, 53.180 264.153, 51.667 265.667 M 83.589 268.077 C 81.582 270.462, 81 272.244, 81 276.007 L 81 280.861 85.992 280.680 L 90.984 280.500 90.992 272.750 C 91 265.224, 90.930 265, 88.589 265 C 87.124 265, 85.162 266.208, 83.589 268.077 M 67 267.417 C 67 268.288, 67.713 269, 68.583 269 C 70.349 269, 70.042 266.847, 68.188 266.229 C 67.534 266.011, 67 266.546, 67 267.417 M 127 267 C 127 267.556, 129.667 268, 133 268 C 136.333 268, 139 267.556, 139 267 C 139 266.444, 136.333 266, 133 266 C 129.667 266, 127 266.444, 127 267 M 53 268.500 C 53 269.417, 53.484 270.005, 54.075 269.808 C 54.666 269.611, 55.150 269.022, 55.150 268.500 C 55.150 267.978, 54.666 267.389, 54.075 267.192 C 53.484 266.995, 53 267.583, 53 268.500 M 106.694 273.639 C 105.228 275.105, 107.450 276, 112.559 276 C 116.729 276, 118 275.650, 118 274.500 C 118 273.354, 116.741 273, 112.667 273 C 109.733 273, 107.046 273.288, 106.694 273.639 M 106.518 277.971 C 106.188 278.505, 106.999 279.213, 108.321 279.544 C 111.857 280.432, 117.284 279.687, 117.756 278.250 C 118.258 276.723, 107.455 276.455, 106.518 277.971 M 106.500 282 C 106.114 282.625, 108.156 283, 111.941 283 C 115.314 283, 118 282.557, 118 282 C 118 281.450, 115.552 281, 112.559 281 C 109.566 281, 106.840 281.450, 106.500 282 M 75.768 306 C 74.575 307.911, 73.436 308, 50.259 308 C 34.753 308, 26 308.361, 26 309 C 26 309.639, 34.793 310, 50.378 310 C 70.827 310, 74.956 310.242, 76 311.500 C 78.641 314.683, 84 312.673, 84 308.500 C 84 304.030, 78.114 302.243, 75.768 306 M 89.565 305.928 C 85.905 309.972, 90.971 315.559, 95.567 312.548 C 98.356 310.720, 98.710 307.853, 96.429 305.571 C 94.312 303.455, 91.679 303.592, 89.565 305.928 M 103.200 305.200 C 101.890 306.510, 101.658 308.944, 102.607 311.418 C 103.406 313.501, 109.569 313.566, 110.362 311.500 C 110.851 310.224, 114.530 310, 134.969 310 C 150.323 310, 159 309.639, 159 309 C 159 308.361, 150.414 308, 135.241 308 C 112.564 308, 111.424 307.909, 110.232 306 C 108.845 303.779, 105.053 303.347, 103.200 305.200 M 77.364 307.493 C 77.018 308.396, 77.214 309.614, 77.800 310.200 C 79.324 311.724, 82.210 310.331, 81.812 308.265 C 81.369 305.963, 78.165 305.407, 77.364 307.493 M 91.667 306.667 C 90.224 308.110, 91.042 311, 92.893 311 C 95.179 311, 96.276 308.676, 94.722 307.122 C 93.438 305.838, 92.618 305.716, 91.667 306.667 M 105.014 306.992 C 103.199 308.113, 104.600 311.224, 106.735 310.812 C 107.693 310.628, 108.617 309.751, 108.788 308.864 C 109.153 306.966, 106.880 305.838, 105.014 306.992 M 114 314.864 C 107.367 317.118, 104.881 317.413, 92.500 317.410 C 80.794 317.408, 77.438 317.052, 72.018 315.236 C 68.356 314.010, 65.157 313.443, 64.668 313.932 C 63.708 314.892, 71.165 317.255, 80.434 318.929 C 93.274 321.247, 111.840 319.292, 120.609 314.697 C 125.437 312.167, 121.653 312.263, 114 314.864" stroke="none" fill="#A855F7" fill-rule="evenodd"/>
</svg>