<?xml version="1.0" encoding="UTF-8"?>
<svg version="1.1" xmlns="http://www.w3.org/2000/svg" width="500" height="500">
<path d="M0 0 C165 0 330 0 500 0 C500 165 500 330 500 500 C335 500 170 500 0 500 C0 335 0 170 0 0 Z " fill="#FEFEFE" transform="translate(0,0)"/>
<path d="M0 0 C0.5775 -0.33 1.155 -0.66 1.75 -1 C4 -2 4 -2 8 -2 C8 -1.34 8 -0.68 8 0 C9.32 -0.33 10.64 -0.66 12 -1 C12.495 1.475 12.495 1.475 13 4 C13.66 4 14.32 4 15 4 C14.71202981 5.34386088 14.36784131 6.6757713 14 8 C13.7215625 9.0828125 13.7215625 9.0828125 13.4375 10.1875 C11.65290349 12.43764343 10.8440684 12.41513309 8.0625 12.8125 C5.16809443 13.09923551 3.85010813 12.95003604 1 12 C0.99589111 13.09465576 0.99178223 14.18931152 0.98754883 15.31713867 C0.96572948 19.38971645 0.91141169 23.46133191 0.84741211 27.53344727 C0.82425636 29.29376991 0.80984206 31.05423061 0.80444336 32.81469727 C0.79513558 35.34999379 0.75410952 37.88312628 0.70703125 40.41796875 C0.71293022 41.59325386 0.71293022 41.59325386 0.71894836 42.7922821 C0.60775443 46.9834183 0.33025954 48.57895512 -2.34912109 51.99487305 C-6.48033489 55.11972651 -9.88716081 54.68274401 -14.8984375 54.49609375 C-19.42239019 53.77248923 -20.95359417 52.35885771 -24 49 C-25.175625 48.2265625 -25.175625 48.2265625 -26.375 47.4375 C-26.91125 46.963125 -27.4475 46.48875 -28 46 C-28 44.68 -28 43.36 -28 42 C-28.78375 41.731875 -29.5675 41.46375 -30.375 41.1875 C-33 40 -33 40 -35 37 C-35.03261267 35.04324007 -35.05733361 33.08497953 -34.99609375 31.12890625 C-34.94378072 28.70624729 -34.94378072 28.70624729 -35.625 25.1875 C-36 22 -36 22 -34 19 C-33.34 19 -32.68 19 -32 19 C-32.12375 18.01 -32.2475 17.02 -32.375 16 C-32.39304868 11.57807297 -30.31059911 9.01234934 -27.703125 5.6015625 C-25.77054385 3.78422702 -24.53827283 3.56406063 -22 3 C-21.278125 2.175 -20.55625 1.35 -19.8125 0.5 C-14.2118423 -4.4783624 -6.088499 -4.05899933 0 0 Z " fill="#E0D9E8" transform="translate(126,160)"/>
<path d="M0 0 C0.5775 -0.33 1.155 -0.66 1.75 -1 C4 -2 4 -2 8 -2 C8 -1.34 8 -0.68 8 0 C9.32 -0.33 10.64 -0.66 12 -1 C12.495 1.475 12.495 1.475 13 4 C13.66 4 14.32 4 15 4 C14.71202981 5.34386088 14.36784131 6.6757713 14 8 C13.7215625 9.0828125 13.7215625 9.0828125 13.4375 10.1875 C11.65290349 12.43764343 10.8440684 12.41513309 8.0625 12.8125 C5.16809443 13.09923551 3.85010813 12.95003604 1 12 C0.67 23.22 0.34 34.44 0 46 C-0.33 45.01 -0.66 44.02 -1 43 C-2.299375 43.12375 -3.59875 43.2475 -4.9375 43.375 C-5.66839844 43.44460937 -6.39929688 43.51421875 -7.15234375 43.5859375 C-8.06693359 43.79089844 -8.06693359 43.79089844 -9 44 C-9.33 44.66 -9.66 45.32 -10 46 C-10.061875 45.0925 -10.12375 44.185 -10.1875 43.25 C-11.19541507 39.21833974 -12.79275293 38.46711313 -16 36 C-16 34.68 -16 33.36 -16 32 C-16.66 32 -17.32 32 -18 32 C-18.33 32.99 -18.66 33.98 -19 35 C-19 33.68 -19 32.36 -19 31 C-17.68 31 -16.36 31 -15 31 C-14.731875 31.78375 -14.46375 32.5675 -14.1875 33.375 C-13.15185568 36.28114923 -13.15185568 36.28114923 -10 38 C-10.103125 36.741875 -10.20625 35.48375 -10.3125 34.1875 C-10.37050781 33.47980469 -10.42851563 32.77210938 -10.48828125 32.04296875 C-11.13257952 29.47069397 -11.84032244 28.53375331 -14 27 C-16.37517325 26.59988501 -16.37517325 26.59988501 -18.9375 26.75 C-20.21947266 26.77320313 -20.21947266 26.77320313 -21.52734375 26.796875 C-23.79809898 26.98341413 -25.81524914 27.37144059 -28 28 C-28.33 26.68 -28.66 25.36 -29 24 C-25.59291048 24 -22.27096599 24.13302699 -18.875 24.375 C-17.82054688 24.44460937 -16.76609375 24.51421875 -15.6796875 24.5859375 C-13 25 -13 25 -11 27 C-11.01160156 26.38511719 -11.02320312 25.77023438 -11.03515625 25.13671875 C-11.04417969 24.32847656 -11.05320312 23.52023438 -11.0625 22.6875 C-11.07410156 21.88699219 -11.08570312 21.08648437 -11.09765625 20.26171875 C-11 18 -11 18 -10 15 C-11.32 15 -12.64 15 -14 15 C-14.12375 15.598125 -14.2475 16.19625 -14.375 16.8125 C-15 19 -15 19 -17 22 C-17.66 22 -18.32 22 -19 22 C-19 21.01 -19 20.02 -19 19 C-19.66 19 -20.32 19 -21 19 C-21.33 19.99 -21.66 20.98 -22 22 C-22 20.68 -22 19.36 -22 18 C-20.35 18 -18.7 18 -17 18 C-16.34 16.68 -15.68 15.36 -15 14 C-16.27875 14.20625 -17.5575 14.4125 -18.875 14.625 C-21.0546875 14.9765625 -21.0546875 14.9765625 -23 15 C-23.66 14.34 -24.32 13.68 -25 13 C-24.625 10.875 -24.625 10.875 -24 9 C-22.68 8.67 -21.36 8.34 -20 8 C-19.34 9.32 -18.68 10.64 -18 12 C-17.34 12 -16.68 12 -16 12 C-16 8.37 -16 4.74 -16 1 C-16.99 1 -17.98 1 -19 1 C-19.226875 1.639375 -19.45375 2.27875 -19.6875 2.9375 C-21 5 -21 5 -23.625 5.75 C-24.40875 5.8325 -25.1925 5.915 -26 6 C-26.66 7.98 -27.32 9.96 -28 12 C-28.66 12 -29.32 12 -30 12 C-30.33 14.31 -30.66 16.62 -31 19 C-31.33 19 -31.66 19 -32 19 C-32.74296872 13.05625022 -31.30349728 10.31114038 -27.703125 5.6015625 C-25.77054385 3.78422702 -24.53827283 3.56406063 -22 3 C-21.278125 2.175 -20.55625 1.35 -19.8125 0.5 C-14.2118423 -4.4783624 -6.088499 -4.05899933 0 0 Z " fill="#5A4176" transform="translate(126,160)"/>
<path d="M0 0 C2.4375 0.8125 2.4375 0.8125 4.4375 2.8125 C4.0625 5.9375 4.0625 5.9375 3.4375 8.8125 C4.675 9.4621875 4.675 9.4621875 5.9375 10.125 C6.7625 10.681875 7.5875 11.23875 8.4375 11.8125 C8.4375 12.8025 8.4375 13.7925 8.4375 14.8125 C9.241875 14.791875 10.04625 14.77125 10.875 14.75 C13.4375 14.8125 13.4375 14.8125 14.4375 15.8125 C14.50994053 17.83214199 14.52127188 19.85417124 14.5 21.875 C14.49097656 22.97972656 14.48195312 24.08445313 14.47265625 25.22265625 C14.46105469 26.07730469 14.44945312 26.93195313 14.4375 27.8125 C13.4475 27.8125 12.4575 27.8125 11.4375 27.8125 C11.1075 29.1325 10.7775 30.4525 10.4375 31.8125 C7.4675 30.8225 4.4975 29.8325 1.4375 28.8125 C1.47875 30.09125 1.52 31.37 1.5625 32.6875 C1.6328125 34.8671875 1.6328125 34.8671875 1.4375 36.8125 C-1.11760399 39.36760399 -3.10712436 39.17946244 -6.5859375 39.52734375 C-8.87486153 39.85756402 -10.60488794 40.58899246 -12.5625 41.8125 C-12.5625 40.4925 -12.5625 39.1725 -12.5625 37.8125 C-13.8825 37.4825 -15.2025 37.1525 -16.5625 36.8125 C-16.61641993 35.02116022 -16.65525571 33.22936101 -16.6875 31.4375 C-16.71070313 30.43976563 -16.73390625 29.44203125 -16.7578125 28.4140625 C-16.5625 25.8125 -16.5625 25.8125 -14.5625 23.8125 C-11.9609375 23.6171875 -11.9609375 23.6171875 -8.9375 23.6875 C-7.43316406 23.71457031 -7.43316406 23.71457031 -5.8984375 23.7421875 C-5.12757813 23.76539063 -4.35671875 23.78859375 -3.5625 23.8125 C-3.583125 22.513125 -3.60375 21.21375 -3.625 19.875 C-3.64649454 18.52084367 -3.63398199 17.16493917 -3.5625 15.8125 C-2.5625 14.8125 -2.5625 14.8125 -0.27734375 14.71484375 C1.09744141 14.73224609 1.09744141 14.73224609 2.5 14.75 C3.41910156 14.75902344 4.33820313 14.76804688 5.28515625 14.77734375 C5.99542969 14.78894531 6.70570313 14.80054688 7.4375 14.8125 C7.4375 14.1525 7.4375 13.4925 7.4375 12.8125 C2.8175 12.8125 -1.8025 12.8125 -6.5625 12.8125 C-7.2225 14.4625 -7.8825 16.1125 -8.5625 17.8125 C-9.2225 17.8125 -9.8825 17.8125 -10.5625 17.8125 C-10.25631595 14.13829134 -9.80478216 13.03114487 -7 10.5 C-6.195625 9.943125 -5.39125 9.38625 -4.5625 8.8125 C-4.789375 7.884375 -5.01625 6.95625 -5.25 6 C-5.5625 2.8125 -5.5625 2.8125 -4.4375 0.875 C-2.5625 -0.1875 -2.5625 -0.1875 0 0 Z " fill="#414041" transform="translate(146.5625,169.1875)"/>
<path d="M0 0 C1.43352212 0.00015908 2.86704998 0.00585132 4.30053711 0.01586914 C5.43041298 0.01799156 5.43041298 0.01799156 6.58311462 0.02015686 C8.99807646 0.02577163 11.41294687 0.03832656 13.82788086 0.05102539 C15.46134307 0.05603849 17.09480672 0.06060173 18.72827148 0.06469727 C22.74067671 0.07574585 26.75301326 0.09302033 30.76538086 0.11352539 C31.32788086 2.05102539 31.32788086 2.05102539 31.76538086 4.11352539 C31.43538086 4.44352539 31.10538086 4.77352539 30.76538086 5.11352539 C28.78538086 5.11352539 26.80538086 5.11352539 24.76538086 5.11352539 C24.76538086 10.72352539 24.76538086 16.33352539 24.76538086 22.11352539 C23.11538086 21.78352539 21.46538086 21.45352539 19.76538086 21.11352539 C19.76538086 15.83352539 19.76538086 10.55352539 19.76538086 5.11352539 C13.82538086 5.11352539 7.88538086 5.11352539 1.76538086 5.11352539 C1.76538086 6.43352539 1.76538086 7.75352539 1.76538086 9.11352539 C4.73538086 9.11352539 7.70538086 9.11352539 10.76538086 9.11352539 C11.09538086 10.43352539 11.42538086 11.75352539 11.76538086 13.11352539 C10.76538086 14.11352539 10.76538086 14.11352539 8.69897461 14.21118164 C7.87526367 14.19958008 7.05155273 14.18797852 6.20288086 14.17602539 C5.3765918 14.16700195 4.55030273 14.15797852 3.69897461 14.14868164 C3.06088867 14.13708008 2.42280273 14.12547852 1.76538086 14.11352539 C1.78600586 15.06227539 1.80663086 16.01102539 1.82788086 16.98852539 C1.76538086 20.11352539 1.76538086 20.11352539 0.76538086 22.11352539 C-0.88461914 21.78352539 -2.53461914 21.45352539 -4.23461914 21.11352539 C-4.26350061 17.80104352 -4.28137713 14.48859372 -4.29711914 11.17602539 C-4.30549805 10.23049805 -4.31387695 9.2849707 -4.32250977 8.31079102 C-4.32573242 7.41166992 -4.32895508 6.51254883 -4.33227539 5.58618164 C-4.33751221 4.75352783 -4.34274902 3.92087402 -4.34814453 3.06298828 C-4.15303266 -0.28748116 -3.43926623 0.12070789 0 0 Z " fill="#763FBC" transform="translate(253.234619140625,170.886474609375)"/>
<path d="M0 0 C1.32 0 2.64 0 4 0 C6.359375 2.40625 6.359375 2.40625 8.75 5.5 C9.94882813 7.03140625 9.94882813 7.03140625 11.171875 8.59375 C11.77515625 9.3878125 12.3784375 10.181875 13 11 C13.33 7.7 13.66 4.4 14 1 C15.65 0.67 17.3 0.34 19 0 C19 7.26 19 14.52 19 22 C13.24641911 20.84928382 12.62686822 19.9035453 9.1875 15.4375 C8.39730469 14.42558594 7.60710937 13.41367188 6.79296875 12.37109375 C6.20128906 11.58863281 5.60960937 10.80617187 5 10 C4.67 13.96 4.34 17.92 4 22 C2.68 22 1.36 22 0 22 C0 14.74 0 7.48 0 0 Z " fill="#6B2FB6" transform="translate(201,171)"/>
<path d="M0 0 C1.39456452 0.00667256 2.78911118 0.01863093 4.18359375 0.03515625 C4.89451172 0.03966797 5.60542969 0.04417969 6.33789062 0.04882812 C8.09899388 0.06064761 9.86005411 0.07858362 11.62109375 0.09765625 C12.18359375 2.03515625 12.18359375 2.03515625 12.62109375 4.09765625 C11.62109375 5.09765625 11.62109375 5.09765625 9.3359375 5.1953125 C7.96115234 5.17791016 7.96115234 5.17791016 6.55859375 5.16015625 C5.63949219 5.15113281 4.72039062 5.14210937 3.7734375 5.1328125 C3.06316406 5.12121094 2.35289062 5.10960937 1.62109375 5.09765625 C1.62109375 6.41765625 1.62109375 7.73765625 1.62109375 9.09765625 C4.59109375 9.09765625 7.56109375 9.09765625 10.62109375 9.09765625 C10.62109375 10.41765625 10.62109375 11.73765625 10.62109375 13.09765625 C7.32109375 13.09765625 4.02109375 13.09765625 0.62109375 13.09765625 C0.62109375 14.74765625 0.62109375 16.39765625 0.62109375 18.09765625 C4.58109375 18.09765625 8.54109375 18.09765625 12.62109375 18.09765625 C12.62109375 19.41765625 12.62109375 20.73765625 12.62109375 22.09765625 C7.01109375 22.09765625 1.40109375 22.09765625 -4.37890625 22.09765625 C-4.40573826 18.6184389 -4.42566295 15.13942586 -4.44140625 11.66015625 C-4.44978516 10.66693359 -4.45816406 9.67371094 -4.46679688 8.65039062 C-4.47001953 7.70615234 -4.47324219 6.76191406 -4.4765625 5.7890625 C-4.48179932 4.91451416 -4.48703613 4.03996582 -4.49243164 3.13891602 C-4.29828606 -0.35194686 -3.60712831 0.10425226 0 0 Z " fill="#723ABA" transform="translate(185.37890625,170.90234375)"/>
<path d="M0 0 C1.65 0 3.3 0 5 0 C13 15.71541502 13 15.71541502 13 21 C11.68 21 10.36 21 9 21 C8.67 19.68 8.34 18.36 8 17 C4.37 17 0.74 17 -3 17 C-3.33 18.32 -3.66 19.64 -4 21 C-5.32 21 -6.64 21 -8 21 C-7.32512263 16.18080529 -5.42034091 12.08116134 -3.4375 7.6875 C-2.9434668 6.57665039 -2.9434668 6.57665039 -2.43945312 5.44335938 C-1.63082877 3.62688438 -0.81602884 1.81316069 0 0 Z " fill="#151515" transform="translate(303,171)"/>
<path d="M0 0 C2.3125 0.5625 2.3125 0.5625 4.3125 2.5625 C4.53955078 5.45166016 4.53955078 5.45166016 4.5078125 9.1015625 C4.50136719 10.40351563 4.49492188 11.70546875 4.48828125 13.046875 C4.47156929 14.42708595 4.45463939 15.80729429 4.4375 17.1875 C4.42747006 18.57551452 4.41834423 19.96353589 4.41015625 21.3515625 C4.38651863 24.75538026 4.35356867 28.15885506 4.3125 31.5625 C2.3325 32.2225 0.3525 32.8825 -1.6875 33.5625 C-1.71458567 31.95842672 -1.73393483 30.3542215 -1.75 28.75 C-1.76160156 27.85667969 -1.77320312 26.96335938 -1.78515625 26.04296875 C-1.6875 23.5625 -1.6875 23.5625 -0.6875 20.5625 C-1.3475 20.2325 -2.0075 19.9025 -2.6875 19.5625 C-2.8125 17.1875 -2.8125 17.1875 -2.6875 14.5625 C-2.0275 13.9025 -1.3675 13.2425 -0.6875 12.5625 C-0.6875 11.5725 -0.6875 10.5825 -0.6875 9.5625 C-1.6775 9.5625 -2.6675 9.5625 -3.6875 9.5625 C-3.6875 11.2125 -3.6875 12.8625 -3.6875 14.5625 C-5.0075 14.5625 -6.3275 14.5625 -7.6875 14.5625 C-8.24294391 9.1191497 -7.4371169 6.07941517 -4.125 1.8828125 C-2.6875 0.5625 -2.6875 0.5625 0 0 Z " fill="#F8F8F8" transform="translate(119.6875,158.4375)"/>
<path d="M0 0 C2.0625 0.4375 2.0625 0.4375 4 1 C3.21302675 4.41021743 2.12880057 7.68885166 1 11 C1.99 11.33 2.98 11.66 4 12 C3.67 12.99 3.34 13.98 3 15 C2.93259135 16.56118428 2.91485544 18.1250252 2.9375 19.6875 C2.94652344 20.49574219 2.95554687 21.30398437 2.96484375 22.13671875 C2.97644531 22.75160156 2.98804687 23.36648437 3 24 C3.99 23.67 4.98 23.34 6 23 C6.99 23.33 7.98 23.66 9 24 C9 27.63 9 31.26 9 35 C6.36 35 3.72 35 1 35 C0.89042969 34.16855469 0.78085938 33.33710938 0.66796875 32.48046875 C0.50941406 31.39378906 0.35085937 30.30710938 0.1875 29.1875 C0.03667969 28.10855469 -0.11414063 27.02960938 -0.26953125 25.91796875 C-1.03028381 22.87902669 -1.39477566 21.69574287 -4 20 C-6.37517325 19.59988501 -6.37517325 19.59988501 -8.9375 19.75 C-10.21947266 19.77320313 -10.21947266 19.77320313 -11.52734375 19.796875 C-13.79809898 19.98341413 -15.81524914 20.37144059 -18 21 C-18.33 19.68 -18.66 18.36 -19 17 C-15.59291048 17 -12.27096599 17.13302699 -8.875 17.375 C-7.82054688 17.44460937 -6.76609375 17.51421875 -5.6796875 17.5859375 C-3 18 -3 18 -1 20 C-1.01160156 19.38511719 -1.02320312 18.77023438 -1.03515625 18.13671875 C-1.04417969 17.32847656 -1.05320312 16.52023438 -1.0625 15.6875 C-1.07410156 14.88699219 -1.08570312 14.08648437 -1.09765625 13.26171875 C-1 11 -1 11 0 8 C-1.32 8 -2.64 8 -4 8 C-4 7.34 -4 6.68 -4 6 C-2.68 6 -1.36 6 0 6 C-0.185625 5.195625 -0.37125 4.39125 -0.5625 3.5625 C-0.706875 2.716875 -0.85125 1.87125 -1 1 C-0.67 0.67 -0.34 0.34 0 0 Z " fill="#424242" transform="translate(116,167)"/>
<path d="M0 0 C0.99 0 1.98 0 3 0 C3 6.93 3 13.86 3 21 C2.01 21 1.02 21 0 21 C0 19.68 0 18.36 0 17 C-3.96 17 -7.92 17 -12 17 C-12 15.35 -12 13.7 -12 12 C-8.7 12 -5.4 12 -2 12 C-2 10.68 -2 9.36 -2 8 C-4.97 8 -7.94 8 -11 8 C-11 6.68 -11 5.36 -11 4 C-7.7 3.67 -4.4 3.34 -1 3 C-0.67 2.01 -0.34 1.02 0 0 Z " fill="#EEE7F6" transform="translate(198,172)"/>
<path d="M0 0 C10.625 -0.25 10.625 -0.25 14 2 C14.29296875 4.1640625 14.29296875 4.1640625 14.1875 6.625 C14.16042969 7.44226563 14.13335937 8.25953125 14.10546875 9.1015625 C14.07066406 9.72804687 14.03585938 10.35453125 14 11 C11.02148438 11.29296875 11.02148438 11.29296875 8.04296875 11.5859375 C5.70011858 11.92665391 5.70011858 11.92665391 3 14 C3 13.01 3 12.02 3 11 C2.01 11 1.02 11 0 11 C0 7.37 0 3.74 0 0 Z " fill="#A3A3A3" transform="translate(132,195)"/>
<path d="M0 0 C1.65 0 3.3 0 5 0 C5 5.61 5 11.22 5 17 C8.3 17 11.6 17 15 17 C15 18.32 15 19.64 15 21 C10.05 21 5.1 21 0 21 C0 14.07 0 7.14 0 0 Z " fill="#692DB6" transform="translate(224,172)"/>
<path d="M0 0 C2.4375 0.8125 2.4375 0.8125 4.4375 2.8125 C4.0625 5.9375 4.0625 5.9375 3.4375 8.8125 C5.0875 9.8025 6.7375 10.7925 8.4375 11.8125 C8.1075 12.4725 7.7775 13.1325 7.4375 13.8125 C6.426875 13.6475 5.41625 13.4825 4.375 13.3125 C0.67487067 12.84264231 -2.83857391 12.73650151 -6.5625 12.8125 C-7.2225 14.4625 -7.8825 16.1125 -8.5625 17.8125 C-9.2225 17.8125 -9.8825 17.8125 -10.5625 17.8125 C-10.25631595 14.13829134 -9.80478216 13.03114487 -7 10.5 C-6.195625 9.943125 -5.39125 9.38625 -4.5625 8.8125 C-4.9028125 7.4203125 -4.9028125 7.4203125 -5.25 6 C-5.5625 2.8125 -5.5625 2.8125 -4.4375 0.875 C-2.5625 -0.1875 -2.5625 -0.1875 0 0 Z " fill="#7E42BF" transform="translate(146.5625,169.1875)"/>
<path d="M0 0 C3.63 0 7.26 0 11 0 C11.33 0.66 11.66 1.32 12 2 C10.865625 2.12375 9.73125 2.2475 8.5625 2.375 C6.7990625 2.684375 6.7990625 2.684375 5 3 C4.67 3.66 4.34 4.32 4 5 C6.64 5.33 9.28 5.66 12 6 C12.33 5.01 12.66 4.02 13 3 C13.33 3 13.66 3 14 3 C14 5.64 14 8.28 14 11 C12.35 11.66 10.7 12.32 9 13 C9 12.34 9 11.68 9 11 C6.03 11 3.06 11 0 11 C0 7.37 0 3.74 0 0 Z " fill="#E1E1E1" transform="translate(145,185)"/>
<path d="M0 0 C2.125 0.375 2.125 0.375 4 1 C4 1.66 4 2.32 4 3 C16.21 3 28.42 3 41 3 C41 3.66 41 4.32 41 5 C28.79 5 16.58 5 4 5 C4 5.66 4 6.32 4 7 C2.35 7 0.7 7 -1 7 C-1.625 4.625 -1.625 4.625 -2 2 C-1.34 1.34 -0.68 0.68 0 0 Z " fill="#484848" transform="translate(135,215)"/>
<path d="M0 0 C2.475 0.495 2.475 0.495 5 1 C5 2.65 5 4.3 5 6 C3.34385343 6.38218767 1.67542976 6.71395102 0 7 C-0.495 6.505 -0.495 6.505 -1 6 C-3.73701178 5.83989519 -6.4516759 5.74053172 -9.19140625 5.68359375 C-10.42116432 5.6524221 -10.42116432 5.6524221 -11.67576599 5.62062073 C-14.30458901 5.55503506 -16.93351504 5.49619874 -19.5625 5.4375 C-21.34050561 5.39432333 -23.11850065 5.35070933 -24.89648438 5.30664062 C-29.26421634 5.19934457 -33.63205227 5.09810296 -38 5 C-38 4.34 -38 3.68 -38 3 C-25.79 3 -13.58 3 -1 3 C-0.67 2.01 -0.34 1.02 0 0 Z " fill="#3A3A3A" transform="translate(114,215)"/>
<path d="M0 0 C1.98 0.495 1.98 0.495 4 1 C4 7.93 4 14.86 4 22 C2.35 22 0.7 22 -1 22 C-1.02887814 18.52085059 -1.04675687 15.04173169 -1.0625 11.5625 C-1.07087891 10.56927734 -1.07925781 9.57605469 -1.08789062 8.55273438 C-1.09111328 7.60849609 -1.09433594 6.66425781 -1.09765625 5.69140625 C-1.10289307 4.81685791 -1.10812988 3.94230957 -1.11352539 3.04125977 C-1 1 -1 1 0 0 Z " fill="#7037B9" transform="translate(242,171)"/>
<path d="M0 0 C1.98 0.495 1.98 0.495 4 1 C4 7.6 4 14.2 4 21 C2.35 21.33 0.7 21.66 -1 22 C-1.02887814 18.52085059 -1.04675687 15.04173169 -1.0625 11.5625 C-1.07087891 10.56927734 -1.07925781 9.57605469 -1.08789062 8.55273438 C-1.09111328 7.60849609 -1.09433594 6.66425781 -1.09765625 5.69140625 C-1.10289307 4.81685791 -1.10812988 3.94230957 -1.11352539 3.04125977 C-1 1 -1 1 0 0 Z " fill="#2D2D2D" transform="translate(320,171)"/>
<path d="M0 0 C0.66 0 1.32 0 2 0 C2 0.66 2 1.32 2 2 C3.65 2 5.3 2 7 2 C7.80967438 4.91482778 8.21845993 6.46113217 7.0625 9.3125 C6.711875 9.869375 6.36125 10.42625 6 11 C4.68 11 3.36 11 2 11 C2 11.66 2 12.32 2 13 C1.34 13 0.68 13 0 13 C0 12.34 0 11.68 0 11 C-1.32 10.67 -2.64 10.34 -4 10 C-4.98120464 6.94736336 -4.98120464 5.05263664 -4 2 C-2.68 2 -1.36 2 0 2 C0 1.34 0 0.68 0 0 Z " fill="#DED1ED" transform="translate(131,159)"/>
<path d="M0 0 C0.33 0 0.66 0 1 0 C1.08126087 2.08268593 1.13930839 4.16628658 1.1875 6.25 C1.22230469 7.41015625 1.25710937 8.5703125 1.29296875 9.765625 C0.97927287 13.22882755 0.46132762 14.59230906 -2 17 C-2.66 17 -3.32 17 -4 17 C-4 16.01 -4 15.02 -4 14 C-4.66 14 -5.32 14 -6 14 C-6.33 14.99 -6.66 15.98 -7 17 C-7 15.68 -7 14.36 -7 13 C-5.35 13 -3.7 13 -2 13 C-1.34 11.68 -0.68 10.36 0 9 C-1.27875 9.20625 -2.5575 9.4125 -3.875 9.625 C-6.0546875 9.9765625 -6.0546875 9.9765625 -8 10 C-8.66 9.34 -9.32 8.68 -10 8 C-9.625 5.875 -9.625 5.875 -9 4 C-7.68 3.67 -6.36 3.34 -5 3 C-4.34 4.32 -3.68 5.64 -3 7 C-2.34 7 -1.68 7 -1 7 C-0.67 4.69 -0.34 2.38 0 0 Z " fill="#2A2A2A" transform="translate(111,165)"/>
<path d="M0 0 C0.99 0 1.98 0 3 0 C3 3.63 3 7.26 3 11 C2.34 11 1.68 11 1 11 C0.34 10.01 -0.32 9.02 -1 8 C-3.31 8.33 -5.62 8.66 -8 9 C-7.875 7.1875 -7.875 7.1875 -7 5 C-5.03384339 3.9349985 -3.03273074 2.93166826 -1 2 C-0.67 1.34 -0.34 0.68 0 0 Z " fill="#F4F3F5" transform="translate(107,161)"/>
<path d="M0 0 C1.77049689 -0.05410687 3.54146849 -0.09284119 5.3125 -0.125 C6.29863281 -0.14820313 7.28476563 -0.17140625 8.30078125 -0.1953125 C11 0 11 0 14 2 C14.29296875 4.1640625 14.29296875 4.1640625 14.1875 6.625 C14.16042969 7.44226563 14.13335937 8.25953125 14.10546875 9.1015625 C14.07066406 9.72804687 14.03585938 10.35453125 14 11 C11.36 11 8.72 11 6 11 C6 10.34 6 9.68 6 9 C7.65 9 9.3 9 11 9 C10.814375 8.21625 10.62875 7.4325 10.4375 6.625 C10 4 10 4 11 2 C8.02148438 2.09765625 8.02148438 2.09765625 5.04296875 2.1953125 C3 2 3 2 0 0 Z " fill="#F3F3F3" transform="translate(132,195)"/>
<path d="M0 0 C1.32 0 2.64 0 4 0 C4 3.3 4 6.6 4 10 C2.02 10 0.04 10 -2 10 C-2.1953125 3.9453125 -2.1953125 3.9453125 -2 2 C-1.34 1.34 -0.68 0.68 0 0 Z " fill="#FAFAFA" transform="translate(120,192)"/>
<path d="M0 0 C2.0625 0.4375 2.0625 0.4375 4 1 C3.21302675 4.41021743 2.12880057 7.68885166 1 11 C1.99 11.33 2.98 11.66 4 12 C3.34 13.32 2.68 14.64 2 16 C1.01 15.67 0.02 15.34 -1 15 C-0.67 12.69 -0.34 10.38 0 8 C-1.32 8 -2.64 8 -4 8 C-4 7.34 -4 6.68 -4 6 C-2.68 6 -1.36 6 0 6 C-0.2784375 4.7934375 -0.2784375 4.7934375 -0.5625 3.5625 C-0.706875 2.716875 -0.85125 1.87125 -1 1 C-0.67 0.67 -0.34 0.34 0 0 Z " fill="#505050" transform="translate(116,167)"/>
<path d="M0 0 C1.32 0.33 2.64 0.66 4 1 C4 3.97 4 6.94 4 10 C3.67 10 3.34 10 3 10 C2.67 8.02 2.34 6.04 2 4 C1.67 4.66 1.34 5.32 1 6 C-1.97 6 -4.94 6 -8 6 C-7.67 4.68 -7.34 3.36 -7 2 C-3.535 1.505 -3.535 1.505 0 1 C0 0.67 0 0.34 0 0 Z " fill="#8B8B8B" transform="translate(156,185)"/>
<path d="M0 0 C1.32 0.66 2.64 1.32 4 2 C3.67 3.65 3.34 5.3 3 7 C5.31 6.34 7.62 5.68 10 5 C10 6.32 10 7.64 10 9 C8.68 9 7.36 9 6 9 C6 9.66 6 10.32 6 11 C5.34 11 4.68 11 4 11 C4 10.34 4 9.68 4 9 C2.68 8.67 1.36 8.34 0 8 C-0.98120464 4.94736336 -0.98120464 3.05263664 0 0 Z " fill="#EAE2F3" transform="translate(127,161)"/>
<path d="M0 0 C1.125 3.75 1.125 3.75 0 6 C-1.66611905 6.042721 -3.33382885 6.04063832 -5 6 C-6 5 -6 5 -6.0625 2.4375 C-6.041875 1.633125 -6.02125 0.82875 -6 0 C-3.50907189 -1.24546405 -2.58919267 -0.7767578 0 0 Z " fill="#666666" transform="translate(129,216)"/>
<path d="M0 0 C0.66 0.66 1.32 1.32 2 2 C0.14536523 2 -1.71006788 1.96536254 -3.5625 1.875 C-6.18314627 1.73650326 -6.18314627 1.73650326 -8 4 C-9.31747324 4.69748583 -10.64914193 5.36959957 -12 6 C-12 4.35 -12 2.7 -12 1 C-12.66 0.67 -13.32 0.34 -14 0 C-4.17431193 -1.39143731 -4.17431193 -1.39143731 0 0 Z " fill="#A080C6" transform="translate(123,158)"/>
<path d="M0 0 C2.125 0.375 2.125 0.375 4 1 C5.125 4.75 5.125 4.75 4 7 C2.35 7 0.7 7 -1 7 C-1.625 4.625 -1.625 4.625 -2 2 C-1.34 1.34 -0.68 0.68 0 0 Z " fill="#5F5F5F" transform="translate(135,215)"/>
<path d="M0 0 C1.67542976 0.28604898 3.34385343 0.61781233 5 1 C5 2.65 5 4.3 5 6 C3.34385343 6.38218767 1.67542976 6.71395102 0 7 C-1 6 -1 6 -1.125 3.5 C-1 1 -1 1 0 0 Z " fill="#F8F4FB" transform="translate(144,171)"/>
<path d="M0 0 C2.97 0 5.94 0 9 0 C9 1.32 9 2.64 9 4 C6.03 4 3.06 4 0 4 C0 2.68 0 1.36 0 0 Z " fill="#6D32B7" transform="translate(285,182)"/>
<path d="M0 0 C2.97 0 5.94 0 9 0 C9 0.99 9 1.98 9 3 C7.9275 3.144375 6.855 3.28875 5.75 3.4375 C3.08337051 3.83749442 0.58600271 4.27591924 -2 5 C-2 4.34 -2 3.68 -2 3 C-2.66 2.67 -3.32 2.34 -4 2 C-2.68 2 -1.36 2 0 2 C0 1.34 0 0.68 0 0 Z " fill="#DEDEDE" transform="translate(139,220)"/>
<path d="M0 0 C2.89932357 2.39509338 3.50168276 4.31245243 4 8 C1.69 8 -0.62 8 -3 8 C-1.125 2.25 -1.125 2.25 0 0 Z " fill="#CACACA" transform="translate(305,177)"/>
<path d="M0 0 C2.0625 0.25 2.0625 0.25 4 1 C4.33 1.66 4.66 2.32 5 3 C4.0625 5.125 4.0625 5.125 3 7 C1.68 6.67 0.36 6.34 -1 6 C-1.625 4.125 -1.625 4.125 -2 2 C-1.34 1.34 -0.68 0.68 0 0 Z " fill="#787878" transform="translate(103,168)"/>
<path d="M0 0 C0.99 0.33 1.98 0.66 3 1 C3 2.32 3 3.64 3 5 C3.66 5 4.32 5 5 5 C4.37240135 7.92879371 3.41377341 10.36095629 2 13 C0.35 13 -1.3 13 -3 13 C-3 12.34 -3 11.68 -3 11 C-1.68 11 -0.36 11 1 11 C2.26264601 6.70700357 1.62950412 4.12168689 0 0 Z " fill="#7E48BB" transform="translate(136,159)"/>
<path d="M0 0 C0 3.63 0 7.26 0 11 C-0.33 11 -0.66 11 -1 11 C-1 7.7 -1 4.4 -1 1 C-2.65 1.66 -4.3 2.32 -6 3 C-6.33 5.64 -6.66 8.28 -7 11 C-7.33 11 -7.66 11 -8 11 C-8.33 7.37 -8.66 3.74 -9 0 C-4 -1 -4 -1 0 0 Z " fill="#797979" transform="translate(125,191)"/>
<path d="M0 0 C0 0.66 0 1.32 0 2 C-0.99 2 -1.98 2 -3 2 C-3.33 3.32 -3.66 4.64 -4 6 C-4.53625 5.71125 -5.0725 5.4225 -5.625 5.125 C-8.35280484 3.83288192 -11.12612718 2.91441408 -14 2 C-14 1.67 -14 1.34 -14 1 C-11.69 1 -9.38 1 -7 1 C-7 1.66 -7 2.32 -7 3 C-6.21625 2.505 -5.4325 2.01 -4.625 1.5 C-2 0 -2 0 0 0 Z " fill="#4F4F4F" transform="translate(161,195)"/>
<path d="M0 0 C2.475 0.495 2.475 0.495 5 1 C5 2.65 5 4.3 5 6 C4.01 6.495 4.01 6.495 3 7 C2.01 6.34 1.02 5.68 0 5 C-0.1875 2.375 -0.1875 2.375 0 0 Z " fill="#7D7D7D" transform="translate(114,215)"/>
<path d="M0 0 C-0.33 0.99 -0.66 1.98 -1 3 C-3.31 3 -5.62 3 -8 3 C-8.66 4.65 -9.32 6.3 -10 8 C-10.66 8 -11.32 8 -12 8 C-11.68306247 5.06832781 -11.36774166 3.41017339 -9.375 1.1875 C-6.1686245 -0.41568775 -3.53249148 -0.20379759 0 0 Z " fill="#9563CA" transform="translate(148,179)"/>
<path d="M0 0 C1.65 0 3.3 0 5 0 C5 1.65 5 3.3 5 5 C3.35 5 1.7 5 0 5 C0 3.35 0 1.7 0 0 Z " fill="#A073CF" transform="translate(130,163)"/>
<path d="M0 0 C1.98 0.495 1.98 0.495 4 1 C3.67 2.32 3.34 3.64 3 5 C1.68 4.67 0.36 4.34 -1 4 C-0.67 2.68 -0.34 1.36 0 0 Z " fill="#626262" transform="translate(98,191)"/>
<path d="M0 0 C2.31 0.33 4.62 0.66 7 1 C7 1.66 7 2.32 7 3 C4.03 3 1.06 3 -2 3 C-1.34 2.67 -0.68 2.34 0 2 C0 1.34 0 0.68 0 0 Z " fill="#DCD9E0" transform="translate(147,181)"/>
<path d="M0 0 C0.99 0.33 1.98 0.66 3 1 C3.33 1.99 3.66 2.98 4 4 C2.68 4.33 1.36 4.66 0 5 C-0.5625 3.0625 -0.5625 3.0625 -1 1 C-0.67 0.67 -0.34 0.34 0 0 Z " fill="#626262" transform="translate(98,183)"/>
<path d="M0 0 C2.475 0.495 2.475 0.495 5 1 C4.34 2.32 3.68 3.64 3 5 C2.01 4.67 1.02 4.34 0 4 C0 2.68 0 1.36 0 0 Z " fill="#6A6A6A" transform="translate(115,178)"/>
</svg>
