<svg version="1.1" id="Layer_1" xmlns="http://www.w3.org/2000/svg" xmlns:xlink="http://www.w3.org/1999/xlink" x="0px" y="0px"
	 width="100%" viewBox="0 0 3264 3264" enable-background="new 0 0 3264 3264" xml:space="preserve">
<path fill="#000000" opacity="1.000000" stroke="none" 
	d="
M2942.000000,3266.000000 
	C1961.333618,3266.000000 981.667236,3266.000000 2.000657,3266.000000 
	C2.000438,2178.000732 2.000438,1090.001221 2.000219,2.001387 
	C1089.999023,2.000925 2177.998047,2.000925 3265.997803,2.000462 
	C3265.998535,1089.998657 3265.998535,2177.997314 3265.999268,3265.998047 
	C3158.333252,3266.000000 3050.666748,3266.000000 2942.000000,3266.000000 
M2655.588867,1798.158447 
	C2655.462646,1781.411987 2655.336426,1764.665527 2655.553467,1746.085571 
	C2655.553467,1714.292725 2655.553467,1682.499878 2655.553467,1650.168213 
	C2640.675293,1650.168213 2626.607666,1650.168213 2612.743896,1650.168213 
	C2612.281250,1651.210938 2611.802246,1651.786011 2611.803467,1652.359863 
	C2611.878174,1684.227539 2611.993408,1716.095215 2611.710693,1749.810059 
	C2611.833740,1766.551392 2611.956787,1783.292603 2611.636230,1801.576172 
	C2611.636230,1822.100464 2611.636230,1842.624878 2611.636230,1863.143311 
	C2626.810791,1863.143311 2640.683105,1863.143311 2655.239258,1863.143311 
	C2655.239258,1841.754395 2655.239258,1820.880127 2655.588867,1798.158447 
M2537.077637,1765.935425 
	C2530.323975,1747.619751 2524.312256,1729.006348 2515.093750,1711.684204 
	C2513.788330,1709.231445 2512.875244,1706.569824 2512.083740,1702.452637 
	C2505.486572,1684.922729 2498.889160,1667.392700 2492.333740,1649.973511 
	C2476.737061,1649.973511 2462.230225,1649.973511 2446.941406,1649.973511 
	C2440.097168,1667.374023 2433.263672,1684.746704 2425.652832,1703.332642 
	C2420.394287,1716.826172 2415.135742,1730.319580 2408.813477,1744.747803 
	C2403.287109,1759.192749 2397.760498,1773.637695 2391.319092,1789.154907 
	C2381.376953,1813.545166 2371.366455,1837.909546 2361.908936,1863.178955 
	C2378.561035,1863.178955 2393.759277,1863.178955 2409.081055,1863.178955 
	C2412.495361,1854.455811 2416.169434,1846.244385 2418.883545,1837.727173 
	C2420.748535,1831.874756 2423.944580,1830.255249 2429.828857,1830.316772 
	C2456.772949,1830.598999 2483.721680,1830.431152 2510.668701,1830.464600 
	C2512.608154,1830.467041 2514.547119,1830.786011 2516.781982,1830.983887 
	C2521.204102,1841.872681 2525.547852,1852.568848 2530.036377,1863.622070 
	C2545.581787,1863.698853 2560.614014,1863.705444 2577.259766,1863.627319 
	C2573.025391,1852.936401 2569.583008,1844.042236 2565.988037,1835.210205 
	C2558.006348,1815.599731 2549.947998,1796.020386 2541.796631,1775.006470 
	C2541.031006,1773.289795 2540.265137,1771.573242 2539.645996,1768.947998 
	C2539.108154,1768.259155 2538.570312,1767.570190 2537.077637,1765.935425 
M473.864899,2010.897949 
	C473.234985,2010.624146 472.605072,2010.350342 471.356537,2008.866699 
	C468.577057,2006.551514 465.615265,2004.421387 463.047668,2001.891235 
	C446.055664,1985.148193 429.086792,1968.380737 412.238342,1951.493530 
	C403.312286,1942.546753 394.460754,1933.511719 385.895660,1924.221558 
	C366.093506,1902.743042 346.693298,1880.891113 326.733643,1859.561646 
	C311.332520,1843.103149 280.624908,1847.344727 273.567444,1871.521851 
	C270.218964,1882.993042 271.861023,1893.850586 280.353394,1903.002441 
	C297.072083,1921.019897 313.575928,1939.242554 330.559265,1957.006836 
	C348.950317,1976.243774 367.786896,1995.054810 386.493286,2014.959229 
	C386.835449,2015.532227 387.340118,2015.827271 388.497314,2017.064941 
	C391.674957,2020.020020 394.852570,2022.975098 398.546173,2027.165039 
	C426.183594,2054.016113 454.399628,2080.256104 485.264008,2103.383301 
	C508.404144,2120.722656 532.792114,2136.086182 560.485229,2145.500977 
	C576.947144,2151.097656 593.961182,2152.626465 610.600037,2148.998291 
	C636.224304,2143.410645 651.325256,2125.319336 659.978516,2101.501465 
	C667.894226,2079.713867 670.174072,2057.003906 670.225647,2032.132446 
	C669.416504,2015.896118 668.927551,1999.635498 667.697876,1983.431030 
	C666.697510,1970.249390 664.809631,1957.135010 663.610474,1942.453003 
	C663.443054,1940.911743 663.275635,1939.370361 663.307617,1936.959717 
	C663.098145,1936.356323 662.696106,1935.937866 662.269348,1934.176270 
	C660.954895,1924.309937 659.618408,1914.446289 658.337646,1904.575684 
	C657.868835,1900.962524 657.532166,1897.332275 657.285645,1892.036743 
	C657.109192,1891.505493 656.932678,1890.974121 658.388306,1891.265503 
	C659.574402,1891.532349 660.760559,1891.799072 662.537170,1892.972534 
	C664.202820,1893.429932 665.868469,1893.887451 668.661743,1895.484863 
	C695.530029,1905.951904 722.227295,1916.886963 749.305969,1926.778076 
	C792.043213,1942.389160 835.356018,1956.140991 880.891235,1961.050903 
	C899.446533,1963.051636 918.035034,1963.262817 936.175476,1957.837402 
	C953.575562,1952.633545 967.000366,1942.441772 974.431396,1925.469360 
	C981.278870,1909.829956 979.538940,1893.350708 976.658386,1877.480347 
	C973.498535,1860.071289 965.168579,1844.352905 954.730835,1828.268433 
	C951.830688,1823.910156 949.070129,1819.451050 946.006104,1815.211182 
	C933.292175,1797.618408 920.976196,1779.707031 907.565430,1762.658936 
	C896.114685,1748.102905 883.667114,1734.290405 871.102661,1720.663452 
	C860.554932,1709.224243 849.202637,1698.526733 837.588135,1686.303467 
	C833.011353,1681.654053 828.461670,1676.977539 823.852905,1672.359985 
	C808.606812,1657.084473 793.568298,1641.592407 778.024719,1626.625244 
	C756.712463,1606.103027 733.998718,1587.178467 709.321106,1570.823120 
	C689.904907,1557.954712 669.695312,1546.794189 646.061279,1542.972290 
	C619.498169,1538.676636 593.381226,1550.425293 579.892883,1573.573730 
	C568.686401,1592.805908 565.179016,1614.129517 564.612122,1635.670776 
	C563.993042,1659.194336 565.652100,1682.780029 566.441528,1706.334351 
	C566.505249,1708.236084 567.524292,1710.105835 567.718384,1713.767090 
	C570.254578,1735.770874 572.790833,1757.774658 575.429504,1780.667480 
	C572.513794,1779.538940 570.022888,1778.827637 567.768127,1777.660034 
	C555.376160,1771.243652 543.173889,1764.446777 530.649292,1758.304932 
	C519.241638,1752.711060 509.019440,1744.599365 495.649658,1740.614502 
	C484.555481,1734.324829 473.642822,1727.685181 462.328705,1721.819824 
	C439.920532,1710.203003 418.291718,1697.389648 397.397766,1683.191650 
	C356.446075,1655.363892 314.752747,1628.613403 274.125977,1600.326050 
	C240.277130,1576.758301 208.733322,1550.200928 179.983002,1520.481934 
	C175.381378,1515.725220 170.832092,1510.893921 165.941467,1506.445679 
	C154.364670,1495.916138 132.475281,1498.126221 123.376755,1508.717651 
	C112.676521,1521.173462 112.083824,1539.890259 123.771103,1553.247192 
	C143.977341,1576.339966 166.484192,1597.043457 190.421555,1616.159302 
	C235.898758,1652.476440 282.940430,1686.605347 332.883362,1716.604858 
	C350.528320,1727.203613 368.154694,1737.833496 386.576752,1749.522827 
	C392.537659,1753.154053 398.387634,1756.984009 404.477600,1760.384033 
	C440.473389,1780.479248 476.420959,1800.665283 512.606689,1820.413940 
	C528.034790,1828.833984 543.999634,1836.270630 560.580139,1845.236694 
	C569.504761,1849.679932 578.429382,1854.123169 588.034546,1858.905273 
	C592.256409,1887.772827 596.512573,1916.875366 600.702454,1947.598633 
	C601.029968,1949.534546 601.501587,1951.458374 601.663330,1953.408081 
	C603.836548,1979.598145 605.966614,2005.791870 607.732422,2033.634399 
	C607.241089,2039.890747 607.013123,2046.181885 606.189270,2052.394287 
	C605.234680,2059.592041 604.209900,2066.836914 602.413513,2073.855957 
	C598.370239,2089.654053 594.178040,2091.819336 579.185730,2086.079102 
	C561.058838,2079.138428 544.716675,2068.986084 529.613525,2056.929688 
	C511.000000,2042.070801 492.683197,2026.840332 474.142059,2011.860107 
	C474.142059,2011.860107 474.271393,2011.869995 473.864899,2010.897949 
M1078.314331,1734.999878 
	C1078.314331,1777.524780 1078.314331,1820.049805 1078.314331,1863.123779 
	C1131.648926,1863.123779 1183.697632,1863.123779 1235.639648,1863.123779 
	C1235.639648,1849.081421 1235.639648,1835.603638 1235.639648,1821.425415 
	C1198.087646,1821.425415 1161.247314,1821.425415 1124.248535,1821.425415 
	C1124.248535,1805.874878 1124.248535,1791.057373 1124.248535,1775.693115 
	C1152.376465,1775.693115 1179.948975,1775.693115 1207.734131,1775.693115 
	C1207.734131,1761.657715 1207.734131,1748.186890 1207.734131,1734.082764 
	C1179.576172,1734.082764 1152.034180,1734.082764 1124.138184,1734.082764 
	C1124.138184,1719.256470 1124.138184,1705.075928 1124.138184,1690.041016 
	C1161.732544,1690.041016 1198.882935,1690.041016 1235.678101,1690.041016 
	C1235.678101,1676.039795 1235.678101,1662.902832 1235.678101,1650.367432 
	C1182.886597,1650.367432 1130.774414,1650.367432 1078.314331,1650.367432 
	C1078.314331,1678.389526 1078.314331,1705.694580 1078.314331,1734.999878 
M1710.341187,1839.194580 
	C1710.341187,1833.617676 1710.341187,1828.040649 1710.341187,1821.469482 
	C1672.380371,1821.469482 1635.334351,1821.469482 1597.685669,1821.469482 
	C1597.685669,1801.499756 1597.685669,1782.552612 1597.685669,1763.605347 
	C1597.685669,1744.626221 1597.868652,1725.644897 1597.634033,1706.668701 
	C1597.401733,1687.885986 1598.669556,1669.042847 1596.868774,1650.020508 
	C1581.543213,1650.020508 1567.325928,1650.020508 1553.155762,1650.020508 
	C1551.163696,1665.893677 1551.933228,1856.643066 1553.969116,1863.324585 
	C1605.837646,1863.324585 1657.706299,1863.324585 1710.341187,1863.324585 
	C1710.341187,1855.683472 1710.341187,1848.394531 1710.341187,1839.194580 
M1437.126587,1863.685669 
	C1445.026001,1863.685669 1452.925415,1863.685669 1460.321411,1863.685669 
	C1461.040527,1862.012817 1461.510376,1861.428589 1461.511963,1860.842896 
	C1461.592163,1830.186401 1462.664551,1799.484009 1461.311890,1768.889160 
	C1460.420776,1748.735718 1449.764771,1732.616699 1430.534790,1724.672729 
	C1413.242554,1717.528931 1395.505005,1718.038452 1378.544189,1727.022461 
	C1376.965454,1727.858521 1375.365967,1728.655151 1373.004883,1729.865723 
	C1372.567749,1726.078735 1372.239258,1723.232666 1371.828369,1719.672607 
	C1358.195557,1721.189209 1344.920532,1722.665894 1332.040039,1724.098877 
	C1332.040039,1771.135376 1332.040039,1817.083618 1332.040039,1863.100098 
	C1345.557007,1863.100098 1358.668457,1863.100098 1372.351318,1863.100098 
	C1372.351318,1859.219116 1372.351196,1855.909546 1372.351318,1852.600098 
	C1372.351440,1828.605347 1372.322021,1804.610718 1372.365112,1780.615967 
	C1372.385742,1769.204590 1381.617310,1757.372803 1391.551880,1755.839355 
	C1403.182129,1754.044189 1415.344604,1762.208740 1418.481812,1774.451904 
	C1419.700439,1779.207886 1420.198242,1784.261963 1420.238770,1789.186768 
	C1420.420166,1811.180420 1420.303467,1833.176514 1420.337402,1855.171631 
	C1420.341431,1857.737061 1420.612427,1860.302002 1420.806641,1863.685669 
	C1426.002319,1863.685669 1430.599365,1863.685669 1437.126587,1863.685669 
M1973.460205,1863.203247 
	C1973.759277,1859.587158 1974.309692,1855.971680 1974.317993,1852.354858 
	C1974.387451,1822.027100 1974.346313,1791.699097 1974.372437,1761.371094 
	C1974.375488,1757.854858 1974.584595,1754.338745 1974.727173,1749.925537 
	C1982.401123,1749.925537 1988.870972,1749.925537 1995.187500,1749.925537 
	C1995.187500,1738.412720 1995.187500,1727.858643 1995.187500,1716.411865 
	C1988.190063,1716.411865 1981.652588,1716.411865 1974.091675,1716.411865 
	C1974.517578,1709.270752 1974.203491,1702.938599 1975.414062,1696.912720 
	C1977.316040,1687.444580 1985.415649,1682.657837 1994.833862,1684.775513 
	C1998.292969,1685.553467 2001.577637,1687.106934 2005.337036,1688.447510 
	C2012.567993,1680.572144 2019.661987,1672.846069 2026.472046,1665.429199 
	C2025.670532,1663.802246 2025.496338,1663.104980 2025.066650,1662.647583 
	C2024.163574,1661.686157 2023.192749,1660.761353 2022.134644,1659.976929 
	C2005.821899,1647.885498 1987.446533,1647.782471 1968.718750,1651.407837 
	C1956.075928,1653.855347 1946.293457,1661.010864 1939.411865,1672.038452 
	C1934.123169,1680.513184 1932.628540,1689.925171 1932.345337,1699.634766 
	C1932.184692,1705.140259 1932.316284,1710.654175 1932.316284,1716.724487 
	C1924.676758,1716.724487 1918.467285,1716.724487 1912.150269,1716.724487 
	C1912.150269,1728.171875 1912.150269,1739.017090 1912.150269,1750.389404 
	C1918.906250,1750.389404 1925.170898,1750.389404 1932.625244,1750.389404 
	C1932.625244,1788.350708 1932.625244,1825.792603 1932.625244,1863.644775 
	C1946.454590,1863.644775 1959.092773,1863.644775 1973.460205,1863.203247 
M2162.680176,1828.295410 
	C2149.444336,1827.222046 2144.633057,1822.283325 2144.406494,1808.680420 
	C2144.168213,1794.369385 2144.351318,1780.051392 2144.350342,1765.736450 
	C2144.350098,1761.900879 2144.350342,1758.065308 2144.350342,1753.333496 
	C2152.075684,1753.333496 2158.577637,1753.333496 2165.023438,1753.333496 
	C2165.023438,1741.886963 2165.023438,1731.426880 2165.023438,1720.125488 
	C2157.834229,1720.125488 2151.294678,1720.125488 2143.873047,1720.125488 
	C2143.873047,1705.492310 2143.873047,1691.710449 2143.873047,1677.329956 
	C2129.555176,1678.984375 2116.202393,1680.527344 2102.193359,1682.146118 
	C2102.193359,1695.197510 2102.193359,1707.397339 2102.193359,1720.536377 
	C2095.028564,1720.536377 2088.591064,1720.536377 2082.106445,1720.536377 
	C2082.106445,1732.068848 2082.106445,1742.628296 2082.106445,1754.099609 
	C2089.049072,1754.099609 2095.528564,1754.099609 2102.338623,1754.099609 
	C2102.338623,1773.296143 2102.106689,1791.579102 2102.416504,1809.852783 
	C2102.638184,1822.910400 2104.436279,1835.715698 2113.574219,1846.101562 
	C2126.588623,1860.893433 2143.575439,1864.716797 2162.234619,1862.981445 
	C2168.680176,1862.381836 2175.347656,1861.229004 2180.575928,1855.577148 
	C2177.674805,1845.826904 2174.791016,1836.135620 2171.841553,1826.223267 
	C2168.683350,1827.005005 2166.477051,1827.551147 2162.680176,1828.295410 
M1794.314331,1832.989502 
	C1794.445801,1843.129517 1794.037231,1853.298950 1794.539551,1863.294556 
	C1809.191406,1863.294556 1822.406250,1863.294556 1835.565674,1863.294556 
	C1837.421875,1847.805908 1836.717651,1726.662720 1834.814575,1720.048584 
	C1821.518188,1720.048584 1808.258423,1720.048584 1794.314331,1720.048584 
	C1794.314331,1757.282593 1794.314331,1794.138306 1794.314331,1832.989502 
M2236.568848,1806.163452 
	C2265.669678,1806.163452 2294.770508,1806.163452 2323.781006,1806.163452 
	C2323.781006,1795.741699 2323.781006,1786.278564 2323.781006,1777.011475 
	C2293.741211,1777.011475 2264.350586,1777.011475 2234.963379,1777.011475 
	C2234.963379,1786.960693 2234.963379,1796.185425 2236.568848,1806.163452 
M1820.036011,1707.657593 
	C1823.583008,1706.042114 1827.657227,1705.070557 1830.572632,1702.683594 
	C1837.701050,1696.847168 1839.484497,1687.987671 1836.145996,1679.294800 
	C1832.655762,1670.206787 1825.636719,1666.105347 1813.937378,1666.317505 
	C1801.276855,1666.546875 1793.978027,1673.526245 1793.643311,1685.723145 
	C1793.275146,1699.139404 1799.512329,1706.465942 1812.399780,1707.650146 
	C1814.374023,1707.831543 1816.379028,1707.680298 1820.036011,1707.657593 
z"/>
<path fill="#8D0DFC" opacity="1.000000" stroke="none" 
	d="
M600.768799,1945.977905 
	C596.512573,1916.875366 592.256409,1887.772827 588.034546,1858.905273 
	C578.429382,1854.123169 569.504761,1849.679932 560.932861,1844.344238 
	C565.199707,1842.967773 569.112671,1842.075684 573.028259,1842.063721 
	C608.679260,1841.955200 644.330750,1842.001831 679.982056,1841.996704 
	C682.646729,1841.996338 685.410339,1842.365356 687.939209,1841.765991 
	C689.476562,1841.401733 690.651367,1839.507812 692.743530,1838.149414 
	C696.302917,1838.911011 699.192749,1839.623413 701.899963,1840.767944 
	C741.308533,1857.427246 781.148926,1872.938110 822.177002,1885.177124 
	C846.003662,1892.284912 870.140442,1898.165161 895.042664,1900.060059 
	C902.594543,1900.634644 910.225647,1900.920532 918.357727,1896.888672 
	C914.880798,1888.776855 912.255066,1880.492188 907.989624,1873.161621 
	C899.838623,1859.153320 890.753906,1845.688354 882.990479,1831.996826 
	C901.161621,1831.998779 918.402832,1832.211548 935.634399,1831.897583 
	C942.170349,1831.778564 948.684265,1830.446655 955.208191,1829.667480 
	C965.168579,1844.352905 973.498535,1860.071289 976.658386,1877.480347 
	C979.538940,1893.350708 981.278870,1909.829956 974.431396,1925.469360 
	C967.000366,1942.441772 953.575562,1952.633545 936.175476,1957.837402 
	C918.035034,1963.262817 899.446533,1963.051636 880.891235,1961.050903 
	C835.356018,1956.140991 792.043213,1942.389160 749.305969,1926.778076 
	C722.227295,1916.886963 695.530029,1905.951904 667.710876,1894.580566 
	C665.155518,1893.139404 663.551086,1892.602661 661.946655,1892.065918 
	C660.760559,1891.799072 659.574402,1891.532349 657.350159,1891.076172 
	C656.586426,1891.827881 656.860840,1892.768799 657.135193,1893.709839 
	C657.532166,1897.332275 657.868835,1900.962524 658.337646,1904.575684 
	C659.618408,1914.446289 660.954895,1924.309937 662.242798,1935.341309 
	C662.369690,1937.044067 662.666992,1937.485107 663.108215,1937.829102 
	C663.275635,1939.370361 663.443054,1940.911743 662.683594,1943.372314 
	C657.897095,1944.861206 654.042297,1945.880737 650.177002,1945.921997 
	C633.709290,1946.098267 617.238464,1945.985229 600.768799,1945.977905 
z"/>
<path fill="#AF1BFC" opacity="1.000000" stroke="none" 
	d="
M385.789490,1748.449219 
	C368.154694,1737.833496 350.528320,1727.203613 332.883362,1716.604858 
	C282.940430,1686.605347 235.898758,1652.476440 190.421555,1616.159302 
	C166.484192,1597.043457 143.977341,1576.339966 123.771103,1553.247192 
	C112.083824,1539.890259 112.676521,1521.173462 123.376755,1508.717651 
	C132.475281,1498.126221 154.364670,1495.916138 165.941467,1506.445679 
	C170.832092,1510.893921 175.381378,1515.725220 179.983002,1520.481934 
	C208.733322,1550.200928 240.277130,1576.758301 274.125977,1600.326050 
	C314.752747,1628.613403 356.446075,1655.363892 397.397766,1683.191650 
	C418.291718,1697.389648 439.920532,1710.203003 462.328705,1721.819824 
	C473.642822,1727.685181 484.555481,1734.324829 495.216248,1741.560181 
	C487.341461,1743.667358 479.914459,1745.708496 472.456085,1745.830322 
	C446.937286,1746.247437 421.406769,1745.899780 395.882690,1746.099121 
	C392.512390,1746.125488 389.153625,1747.629639 385.789490,1748.449219 
z"/>
<path fill="#FBFBFB" opacity="1.000000" stroke="none" 
	d="
M1078.314331,1733.999756 
	C1078.314331,1705.694580 1078.314331,1678.389526 1078.314331,1650.367432 
	C1130.774414,1650.367432 1182.886597,1650.367432 1235.678101,1650.367432 
	C1235.678101,1662.902832 1235.678101,1676.039795 1235.678101,1690.041016 
	C1198.882935,1690.041016 1161.732544,1690.041016 1124.138184,1690.041016 
	C1124.138184,1705.075928 1124.138184,1719.256470 1124.138184,1734.082764 
	C1152.034180,1734.082764 1179.576172,1734.082764 1207.734131,1734.082764 
	C1207.734131,1748.186890 1207.734131,1761.657715 1207.734131,1775.693115 
	C1179.948975,1775.693115 1152.376465,1775.693115 1124.248535,1775.693115 
	C1124.248535,1791.057373 1124.248535,1805.874878 1124.248535,1821.425415 
	C1161.247314,1821.425415 1198.087646,1821.425415 1235.639648,1821.425415 
	C1235.639648,1835.603638 1235.639648,1849.081421 1235.639648,1863.123779 
	C1183.697632,1863.123779 1131.648926,1863.123779 1078.314331,1863.123779 
	C1078.314331,1820.049805 1078.314331,1777.524780 1078.314331,1733.999756 
z"/>
<path fill="#AF1BFC" opacity="1.000000" stroke="none" 
	d="
M568.099426,1711.990356 
	C567.524292,1710.105835 566.505249,1708.236084 566.441528,1706.334351 
	C565.652100,1682.780029 563.993042,1659.194336 564.612122,1635.670776 
	C565.179016,1614.129517 568.686401,1592.805908 579.892883,1573.573730 
	C593.381226,1550.425293 619.498169,1538.676636 646.061279,1542.972290 
	C669.695312,1546.794189 689.904907,1557.954712 709.321106,1570.823120 
	C733.998718,1587.178467 756.712463,1606.103027 778.024719,1626.625244 
	C793.568298,1641.592407 808.606812,1657.084473 823.852905,1672.359985 
	C828.461670,1676.977539 833.011353,1681.654053 837.813965,1687.763672 
	C837.704956,1694.802002 833.522705,1693.980103 829.961792,1693.986816 
	C810.662659,1694.023193 791.361877,1693.877319 772.065308,1694.105225 
	C767.864807,1694.154663 763.679321,1695.474976 758.890991,1695.941162 
	C742.433655,1681.037842 726.834839,1666.104736 710.637085,1651.852173 
	C694.429199,1637.590698 677.572144,1624.030762 658.489563,1613.693481 
	C651.318542,1609.808838 644.014771,1605.561523 634.731445,1605.993530 
	C626.457642,1623.770386 626.508789,1642.689697 626.871033,1661.447998 
	C627.196716,1678.308960 628.839050,1695.144409 628.969543,1711.994141 
	C608.058777,1711.994873 588.079102,1711.992554 568.099426,1711.990356 
z"/>
<path fill="#7603FC" opacity="1.000000" stroke="none" 
	d="
M474.238129,2011.770508 
	C492.683197,2026.840332 511.000000,2042.070801 529.613525,2056.929688 
	C544.716675,2068.986084 561.058838,2079.138428 579.185730,2086.079102 
	C594.178040,2091.819336 598.370239,2089.654053 602.413513,2073.855957 
	C604.209900,2066.836914 605.234680,2059.592041 606.189270,2052.394287 
	C607.013123,2046.181885 607.241089,2039.890747 608.849915,2032.812744 
	C624.750122,2031.992432 639.535767,2031.827637 654.314026,2032.084961 
	C659.486084,2032.175049 664.640076,2033.303833 669.802307,2033.958252 
	C670.174072,2057.003906 667.894226,2079.713867 659.978516,2101.501465 
	C651.325256,2125.319336 636.224304,2143.410645 610.600037,2148.998291 
	C593.961182,2152.626465 576.947144,2151.097656 560.485229,2145.500977 
	C532.792114,2136.086182 508.404144,2120.722656 485.264008,2103.383301 
	C454.399628,2080.256104 426.183594,2054.016113 398.280945,2025.725708 
	C397.593353,2018.414795 400.294250,2015.662231 406.197571,2015.988892 
	C408.172302,2016.098267 410.158417,2016.000366 412.139313,2016.000244 
	C429.967499,2015.999512 447.795776,2016.030151 465.623779,2015.972534 
	C469.091492,2015.961304 473.251862,2017.020386 474.238129,2011.770508 
z"/>
<path fill="#9B12FC" opacity="1.000000" stroke="none" 
	d="
M567.908936,1712.878662 
	C588.079102,1711.992554 608.058777,1711.994873 629.215149,1712.779541 
	C630.773743,1714.829224 631.333374,1716.072144 631.511536,1717.367310 
	C635.711914,1747.902832 639.937866,1778.435181 643.957153,1808.994629 
	C644.484192,1813.001587 645.796509,1815.821533 649.536377,1817.613037 
	C657.075317,1821.224487 664.488525,1825.097290 671.998840,1828.769775 
	C678.630249,1832.012207 685.323242,1835.128784 691.989014,1838.301025 
	C690.651367,1839.507812 689.476562,1841.401733 687.939209,1841.765991 
	C685.410339,1842.365356 682.646729,1841.996338 679.982056,1841.996704 
	C644.330750,1842.001831 608.679260,1841.955200 573.028259,1842.063721 
	C569.112671,1842.075684 565.199707,1842.967773 560.503052,1843.802856 
	C543.999634,1836.270630 528.034790,1828.833984 512.606689,1820.413940 
	C476.420959,1800.665283 440.473389,1780.479248 404.477600,1760.384033 
	C398.387634,1756.984009 392.537659,1753.154053 386.183105,1748.986084 
	C389.153625,1747.629639 392.512390,1746.125488 395.882690,1746.099121 
	C421.406769,1745.899780 446.937286,1746.247437 472.456085,1745.830322 
	C479.914459,1745.708496 487.341461,1743.667358 495.514587,1742.187012 
	C509.019440,1744.599365 519.241638,1752.711060 530.649292,1758.304932 
	C543.173889,1764.446777 555.376160,1771.243652 567.768127,1777.660034 
	C570.022888,1778.827637 572.513794,1779.538940 575.429504,1780.667480 
	C572.790833,1757.774658 570.254578,1735.770874 567.908936,1712.878662 
z"/>
<path fill="#FBFBFB" opacity="1.000000" stroke="none" 
	d="
M1710.341187,1840.150146 
	C1710.341187,1848.394531 1710.341187,1855.683472 1710.341187,1863.324585 
	C1657.706299,1863.324585 1605.837646,1863.324585 1553.968750,1863.331787 
	C1551.933228,1856.643066 1551.163696,1665.893677 1553.155762,1650.020508 
	C1567.325928,1650.020508 1581.543213,1650.020508 1596.868774,1650.020508 
	C1598.669556,1669.042847 1597.401733,1687.885986 1597.634033,1706.668701 
	C1597.868652,1725.644897 1597.685669,1744.626221 1597.685669,1763.605347 
	C1597.685669,1782.552612 1597.685669,1801.499756 1597.685669,1821.469482 
	C1635.334351,1821.469482 1672.380371,1821.469482 1710.341187,1821.469482 
	C1710.341187,1828.040649 1710.341187,1833.617676 1710.341187,1840.150146 
z"/>
<path fill="#FBFBFB" opacity="1.000000" stroke="none" 
	d="
M1436.161621,1863.685669 
	C1430.599365,1863.685669 1426.002319,1863.685669 1420.806641,1863.685669 
	C1420.612427,1860.302002 1420.341431,1857.737061 1420.337402,1855.171631 
	C1420.303467,1833.176514 1420.420166,1811.180420 1420.238770,1789.186768 
	C1420.198242,1784.261963 1419.700439,1779.207886 1418.481812,1774.451904 
	C1415.344604,1762.208740 1403.182129,1754.044189 1391.551880,1755.839355 
	C1381.617310,1757.372803 1372.385742,1769.204590 1372.365112,1780.615967 
	C1372.322021,1804.610718 1372.351440,1828.605347 1372.351318,1852.600098 
	C1372.351196,1855.909546 1372.351318,1859.219116 1372.351318,1863.100098 
	C1358.668457,1863.100098 1345.557007,1863.100098 1332.040039,1863.100098 
	C1332.040039,1817.083618 1332.040039,1771.135376 1332.040039,1724.098877 
	C1344.920532,1722.665894 1358.195557,1721.189209 1371.828369,1719.672607 
	C1372.239258,1723.232666 1372.567749,1726.078735 1373.004883,1729.865723 
	C1375.365967,1728.655151 1376.965454,1727.858521 1378.544189,1727.022461 
	C1395.505005,1718.038452 1413.242554,1717.528931 1430.534790,1724.672729 
	C1449.764771,1732.616699 1460.420776,1748.735718 1461.311890,1768.889160 
	C1462.664551,1799.484009 1461.592163,1830.186401 1461.511963,1860.842896 
	C1461.510376,1861.428589 1461.040527,1862.012817 1460.321411,1863.685669 
	C1452.925415,1863.685669 1445.026001,1863.685669 1436.161621,1863.685669 
z"/>
<path fill="#880BFC" opacity="1.000000" stroke="none" 
	d="
M474.190094,2011.815308 
	C473.251862,2017.020386 469.091492,2015.961304 465.623779,2015.972534 
	C447.795776,2016.030151 429.967499,2015.999512 412.139313,2016.000244 
	C410.158417,2016.000366 408.172302,2016.098267 406.197571,2015.988892 
	C400.294250,2015.662231 397.593353,2018.414795 398.022949,2025.108398 
	C394.852570,2022.975098 391.674957,2020.020020 388.088074,2016.077881 
	C387.371948,2014.612549 386.955414,2014.266113 386.429199,2014.051514 
	C367.786896,1995.054810 348.950317,1976.243774 330.559265,1957.006836 
	C313.575928,1939.242554 297.072083,1921.019897 280.353394,1903.002441 
	C271.861023,1893.850586 270.218964,1882.993042 273.567444,1871.521851 
	C280.624908,1847.344727 311.332520,1843.103149 326.733643,1859.561646 
	C346.693298,1880.891113 366.093506,1902.743042 385.895660,1924.221558 
	C394.460754,1933.511719 403.312286,1942.546753 412.238342,1951.493530 
	C429.086792,1968.380737 446.055664,1985.148193 463.047668,2001.891235 
	C465.615265,2004.421387 468.577057,2006.551514 471.920776,2009.914062 
	C473.080475,2011.264282 473.675934,2011.567139 474.271393,2011.869995 
	C474.271393,2011.869995 474.142059,2011.860107 474.190094,2011.815308 
z"/>
<path fill="#FBFBFB" opacity="1.000000" stroke="none" 
	d="
M1972.595581,1863.424072 
	C1959.092773,1863.644775 1946.454590,1863.644775 1932.625244,1863.644775 
	C1932.625244,1825.792603 1932.625244,1788.350708 1932.625244,1750.389404 
	C1925.170898,1750.389404 1918.906250,1750.389404 1912.150269,1750.389404 
	C1912.150269,1739.017090 1912.150269,1728.171875 1912.150269,1716.724487 
	C1918.467285,1716.724487 1924.676758,1716.724487 1932.316284,1716.724487 
	C1932.316284,1710.654175 1932.184692,1705.140259 1932.345337,1699.634766 
	C1932.628540,1689.925171 1934.123169,1680.513184 1939.411865,1672.038452 
	C1946.293457,1661.010864 1956.075928,1653.855347 1968.718750,1651.407837 
	C1987.446533,1647.782471 2005.821899,1647.885498 2022.134644,1659.976929 
	C2023.192749,1660.761353 2024.163574,1661.686157 2025.066650,1662.647583 
	C2025.496338,1663.104980 2025.670532,1663.802246 2026.472046,1665.429199 
	C2019.661987,1672.846069 2012.567993,1680.572144 2005.337036,1688.447510 
	C2001.577637,1687.106934 1998.292969,1685.553467 1994.833862,1684.775513 
	C1985.415649,1682.657837 1977.316040,1687.444580 1975.414062,1696.912720 
	C1974.203491,1702.938599 1974.517578,1709.270752 1974.091675,1716.411865 
	C1981.652588,1716.411865 1988.190063,1716.411865 1995.187500,1716.411865 
	C1995.187500,1727.858643 1995.187500,1738.412720 1995.187500,1749.925537 
	C1988.870972,1749.925537 1982.401123,1749.925537 1974.727173,1749.925537 
	C1974.584595,1754.338745 1974.375488,1757.854858 1974.372437,1761.371094 
	C1974.346313,1791.699097 1974.387451,1822.027100 1974.317993,1852.354858 
	C1974.309692,1855.971680 1973.759277,1859.587158 1972.595581,1863.424072 
z"/>
<path fill="#9B12FC" opacity="1.000000" stroke="none" 
	d="
M759.486877,1696.209961 
	C763.679321,1695.474976 767.864807,1694.154663 772.065308,1694.105225 
	C791.361877,1693.877319 810.662659,1694.023193 829.961792,1693.986816 
	C833.522705,1693.980103 837.704956,1694.802002 838.123169,1688.362305 
	C849.202637,1698.526733 860.554932,1709.224243 871.102661,1720.663452 
	C883.667114,1734.290405 896.114685,1748.102905 907.565430,1762.658936 
	C920.976196,1779.707031 933.292175,1797.618408 946.006104,1815.211182 
	C949.070129,1819.451050 951.830688,1823.910156 954.969482,1828.968018 
	C948.684265,1830.446655 942.170349,1831.778564 935.634399,1831.897583 
	C918.402832,1832.211548 901.161621,1831.998779 882.395508,1831.679688 
	C848.276367,1788.588135 812.015686,1749.058838 774.252502,1710.860474 
	C769.378296,1705.929810 764.411072,1701.091187 759.486877,1696.209961 
z"/>
<path fill="#7603FC" opacity="1.000000" stroke="none" 
	d="
M2541.920898,1776.428223 
	C2549.947998,1796.020386 2558.006348,1815.599731 2565.988037,1835.210205 
	C2569.583008,1844.042236 2573.025391,1852.936401 2577.259766,1863.627319 
	C2560.614014,1863.705444 2545.581787,1863.698853 2530.036377,1863.622070 
	C2525.547852,1852.568848 2521.204102,1841.872681 2516.781982,1830.983887 
	C2514.547119,1830.786011 2512.608154,1830.467041 2510.668701,1830.464600 
	C2483.721680,1830.431152 2456.772949,1830.598999 2429.828857,1830.316772 
	C2423.944580,1830.255249 2420.748535,1831.874756 2418.883545,1837.727173 
	C2416.169434,1846.244385 2412.495361,1854.455811 2409.081055,1863.178955 
	C2393.759277,1863.178955 2378.561035,1863.178955 2361.908936,1863.178955 
	C2371.366455,1837.909546 2381.376953,1813.545166 2392.591797,1788.719727 
	C2395.122803,1788.716919 2396.374023,1789.502686 2397.640137,1789.526733 
	C2409.617920,1789.755249 2421.602295,1790.058594 2433.573486,1789.805176 
	C2435.790527,1789.758423 2437.957031,1787.314087 2441.070312,1786.066650 
	C2451.531494,1786.194092 2461.069092,1786.270508 2470.606934,1786.256836 
	C2480.244141,1786.243042 2489.881348,1786.140015 2499.794189,1786.074219 
	C2499.172119,1783.130493 2498.839355,1781.557007 2499.412109,1779.989746 
	C2511.860840,1780.006348 2523.403809,1780.037354 2534.947021,1780.012085 
	C2537.836914,1780.005737 2541.153320,1780.645264 2541.920898,1776.428223 
z"/>
<path fill="#FBFBFB" opacity="1.000000" stroke="none" 
	d="
M2163.475342,1828.196289 
	C2166.477051,1827.551147 2168.683350,1827.005005 2171.841553,1826.223267 
	C2174.791016,1836.135620 2177.674805,1845.826904 2180.575928,1855.577148 
	C2175.347656,1861.229004 2168.680176,1862.381836 2162.234619,1862.981445 
	C2143.575439,1864.716797 2126.588623,1860.893433 2113.574219,1846.101562 
	C2104.436279,1835.715698 2102.638184,1822.910400 2102.416504,1809.852783 
	C2102.106689,1791.579102 2102.338623,1773.296143 2102.338623,1754.099609 
	C2095.528564,1754.099609 2089.049072,1754.099609 2082.106445,1754.099609 
	C2082.106445,1742.628296 2082.106445,1732.068848 2082.106445,1720.536377 
	C2088.591064,1720.536377 2095.028564,1720.536377 2102.193359,1720.536377 
	C2102.193359,1707.397339 2102.193359,1695.197510 2102.193359,1682.146118 
	C2116.202393,1680.527344 2129.555176,1678.984375 2143.873047,1677.329956 
	C2143.873047,1691.710449 2143.873047,1705.492310 2143.873047,1720.125488 
	C2151.294678,1720.125488 2157.834229,1720.125488 2165.023438,1720.125488 
	C2165.023438,1731.426880 2165.023438,1741.886963 2165.023438,1753.333496 
	C2158.577637,1753.333496 2152.075684,1753.333496 2144.350342,1753.333496 
	C2144.350342,1758.065308 2144.350098,1761.900879 2144.350342,1765.736450 
	C2144.351318,1780.051392 2144.168213,1794.369385 2144.406494,1808.680420 
	C2144.633057,1822.283325 2149.444336,1827.222046 2163.475342,1828.196289 
z"/>
<path fill="#FBFBFB" opacity="1.000000" stroke="none" 
	d="
M1794.314331,1831.991699 
	C1794.314331,1794.138306 1794.314331,1757.282593 1794.314331,1720.048584 
	C1808.258423,1720.048584 1821.518188,1720.048584 1834.814575,1720.048584 
	C1836.717651,1726.662720 1837.421875,1847.805908 1835.565674,1863.294556 
	C1822.406250,1863.294556 1809.191406,1863.294556 1794.539551,1863.294556 
	C1794.037231,1853.298950 1794.445801,1843.129517 1794.314331,1831.991699 
z"/>
<path fill="#9B12FC" opacity="1.000000" stroke="none" 
	d="
M2541.858887,1775.717285 
	C2541.153320,1780.645264 2537.836914,1780.005737 2534.947021,1780.012085 
	C2523.403809,1780.037354 2511.860840,1780.006348 2499.022217,1779.350830 
	C2488.972168,1756.390991 2480.217529,1734.076416 2471.028076,1710.653198 
	C2465.122070,1724.007324 2459.789795,1736.063721 2453.492188,1748.089355 
	C2441.350098,1748.043091 2430.173340,1747.984741 2418.997070,1748.036133 
	C2415.234375,1748.053467 2411.682373,1747.894775 2409.877197,1743.813110 
	C2415.135742,1730.319580 2420.394287,1716.826172 2426.769531,1703.074829 
	C2431.443359,1703.217773 2434.999756,1703.951538 2438.558594,1703.965698 
	C2462.965576,1704.063110 2487.373047,1704.009888 2511.780518,1704.005005 
	C2512.875244,1706.569824 2513.788330,1709.231445 2515.093750,1711.684204 
	C2524.312256,1729.006348 2530.323975,1747.619751 2537.558105,1766.851074 
	C2538.525879,1768.463379 2539.012695,1769.159912 2539.499512,1769.856567 
	C2540.265137,1771.573242 2541.031006,1773.289795 2541.858887,1775.717285 
z"/>
<path fill="#880BFC" opacity="1.000000" stroke="none" 
	d="
M670.013977,2033.045288 
	C664.640076,2033.303833 659.486084,2032.175049 654.314026,2032.084961 
	C639.535767,2031.827637 624.750122,2031.992432 609.037354,2031.987793 
	C605.966614,2005.791870 603.836548,1979.598145 601.663330,1953.408081 
	C601.501587,1951.458374 601.029968,1949.534546 600.735596,1946.788330 
	C617.238464,1945.985229 633.709290,1946.098267 650.177002,1945.921997 
	C654.042297,1945.880737 657.897095,1944.861206 662.536011,1944.141357 
	C664.809631,1957.135010 666.697510,1970.249390 667.697876,1983.431030 
	C668.927551,1999.635498 669.416504,2015.896118 670.013977,2033.045288 
z"/>
<path fill="#AF1BFC" opacity="1.000000" stroke="none" 
	d="
M2612.104492,1747.962769 
	C2611.993408,1716.095215 2611.878174,1684.227539 2611.803467,1652.359863 
	C2611.802246,1651.786011 2612.281250,1651.210938 2612.743896,1650.168213 
	C2626.607666,1650.168213 2640.675293,1650.168213 2655.553467,1650.168213 
	C2655.553467,1682.499878 2655.553467,1714.292725 2654.497070,1747.014038 
	C2639.661865,1747.949219 2625.883057,1747.955933 2612.104492,1747.962769 
z"/>
<path fill="#AF1BFC" opacity="1.000000" stroke="none" 
	d="
M2511.932129,1703.228760 
	C2487.373047,1704.009888 2462.965576,1704.063110 2438.558594,1703.965698 
	C2434.999756,1703.951538 2431.443359,1703.217773 2427.158203,1702.468262 
	C2433.263672,1684.746704 2440.097168,1667.374023 2446.941406,1649.973511 
	C2462.230225,1649.973511 2476.737061,1649.973511 2492.333740,1649.973511 
	C2498.889160,1667.392700 2505.486572,1684.922729 2511.932129,1703.228760 
z"/>
<path fill="#7603FC" opacity="1.000000" stroke="none" 
	d="
M2655.239258,1800.005859 
	C2655.239258,1820.880127 2655.239258,1841.754395 2655.239258,1863.143311 
	C2640.683105,1863.143311 2626.810791,1863.143311 2611.636230,1863.143311 
	C2611.636230,1842.624878 2611.636230,1822.100464 2612.790039,1800.799561 
	C2627.708984,1800.017334 2641.474121,1800.011597 2655.239258,1800.005859 
z"/>
<path fill="#880BFC" opacity="1.000000" stroke="none" 
	d="
M2235.766113,1805.786743 
	C2234.963379,1796.185425 2234.963379,1786.960693 2234.963379,1777.011475 
	C2264.350586,1777.011475 2293.741211,1777.011475 2323.781006,1777.011475 
	C2323.781006,1786.278564 2323.781006,1795.741699 2323.781006,1806.163452 
	C2294.770508,1806.163452 2265.669678,1806.163452 2235.766113,1805.786743 
z"/>
<path fill="#8D0DFC" opacity="1.000000" stroke="none" 
	d="
M2655.414062,1799.082031 
	C2641.474121,1800.011597 2627.708984,1800.017334 2613.011719,1800.028564 
	C2611.956787,1783.292603 2611.833740,1766.551392 2611.907715,1748.886475 
	C2625.883057,1747.955933 2639.661865,1747.949219 2654.325195,1747.930786 
	C2655.336426,1764.665527 2655.462646,1781.411987 2655.414062,1799.082031 
z"/>
<path fill="#8D0DFC" opacity="1.000000" stroke="none" 
	d="
M2409.345215,1744.280518 
	C2411.682373,1747.894775 2415.234375,1748.053467 2418.997070,1748.036133 
	C2430.173340,1747.984741 2441.350098,1748.043091 2453.388672,1748.834351 
	C2449.549316,1761.732056 2444.847900,1773.854126 2440.146484,1785.976196 
	C2437.957031,1787.314087 2435.790527,1789.758423 2433.573486,1789.805176 
	C2421.602295,1790.058594 2409.617920,1789.755249 2397.640137,1789.526733 
	C2396.374023,1789.502686 2395.122803,1788.716919 2393.049316,1788.183594 
	C2397.760498,1773.637695 2403.287109,1759.192749 2409.345215,1744.280518 
z"/>
<path fill="#FBFBFB" opacity="1.000000" stroke="none" 
	d="
M1819.202881,1707.670166 
	C1816.379028,1707.680298 1814.374023,1707.831543 1812.399780,1707.650146 
	C1799.512329,1706.465942 1793.275146,1699.139404 1793.643311,1685.723145 
	C1793.978027,1673.526245 1801.276855,1666.546875 1813.937378,1666.317505 
	C1825.636719,1666.105347 1832.655762,1670.206787 1836.145996,1679.294800 
	C1839.484497,1687.987671 1837.701050,1696.847168 1830.572632,1702.683594 
	C1827.657227,1705.070557 1823.583008,1706.042114 1819.202881,1707.670166 
z"/>
<path fill="#7603FC" opacity="1.000000" stroke="none" 
	d="
M662.241943,1892.519287 
	C663.551086,1892.602661 665.155518,1893.139404 667.147095,1894.010498 
	C665.868469,1893.887451 664.202820,1893.429932 662.241943,1892.519287 
z"/>
<path fill="#7603FC" opacity="1.000000" stroke="none" 
	d="
M2539.572754,1769.402344 
	C2539.012695,1769.159912 2538.525879,1768.463379 2538.035645,1767.323975 
	C2538.570312,1767.570190 2539.108154,1768.259155 2539.572754,1769.402344 
z"/>
<path fill="#7603FC" opacity="1.000000" stroke="none" 
	d="
M657.210449,1892.873291 
	C656.860840,1892.768799 656.586426,1891.827881 656.534119,1890.664795 
	C656.932678,1890.974121 657.109192,1891.505493 657.210449,1892.873291 
z"/>
<path fill="#880BFC" opacity="1.000000" stroke="none" 
	d="
M663.207886,1937.394409 
	C662.666992,1937.485107 662.369690,1937.044067 662.158936,1936.105347 
	C662.696106,1935.937866 663.098145,1936.356323 663.207886,1937.394409 
z"/>
<path fill="#7603FC" opacity="1.000000" stroke="none" 
	d="
M474.068146,2011.384033 
	C473.675934,2011.567139 473.080475,2011.264282 472.230103,2010.519043 
	C472.605072,2010.350342 473.234985,2010.624146 474.068146,2011.384033 
z"/>
<path fill="#7603FC" opacity="1.000000" stroke="none" 
	d="
M386.461243,2014.505371 
	C386.955414,2014.266113 387.371948,2014.612549 387.843079,2015.467529 
	C387.340118,2015.827271 386.835449,2015.532227 386.461243,2014.505371 
z"/>
<path fill="#000000" opacity="1.000000" stroke="none" 
	d="
M758.890991,1695.941162 
	C764.411072,1701.091187 769.378296,1705.929810 774.252502,1710.860474 
	C812.015686,1749.058838 848.276367,1788.588135 881.461731,1831.680786 
	C890.753906,1845.688354 899.838623,1859.153320 907.989624,1873.161621 
	C912.255066,1880.492188 914.880798,1888.776855 918.357727,1896.888672 
	C910.225647,1900.920532 902.594543,1900.634644 895.042664,1900.060059 
	C870.140442,1898.165161 846.003662,1892.284912 822.177002,1885.177124 
	C781.148926,1872.938110 741.308533,1857.427246 701.899963,1840.767944 
	C699.192749,1839.623413 696.302917,1838.911011 692.743530,1838.149414 
	C685.323242,1835.128784 678.630249,1832.012207 671.998840,1828.769775 
	C664.488525,1825.097290 657.075317,1821.224487 649.536377,1817.613037 
	C645.796509,1815.821533 644.484192,1813.001587 643.957153,1808.994629 
	C639.937866,1778.435181 635.711914,1747.902832 631.511536,1717.367310 
	C631.333374,1716.072144 630.773743,1714.829224 630.146240,1712.776611 
	C628.839050,1695.144409 627.196716,1678.308960 626.871033,1661.447998 
	C626.508789,1642.689697 626.457642,1623.770386 634.731445,1605.993530 
	C644.014771,1605.561523 651.318542,1609.808838 658.489563,1613.693481 
	C677.572144,1624.030762 694.429199,1637.590698 710.637085,1651.852173 
	C726.834839,1666.104736 742.433655,1681.037842 758.890991,1695.941162 
z"/>
<path fill="#000000" opacity="1.000000" stroke="none" 
	d="
M2441.070068,1786.066650 
	C2444.847900,1773.854126 2449.549316,1761.732056 2454.354004,1748.865234 
	C2459.789795,1736.063721 2465.122070,1724.007324 2471.028076,1710.653198 
	C2480.217529,1734.076416 2488.972168,1756.390991 2498.116699,1779.344482 
	C2498.839355,1781.557007 2499.172119,1783.130493 2499.794189,1786.074219 
	C2489.881348,1786.140015 2480.244141,1786.243042 2470.606934,1786.256836 
	C2461.069092,1786.270508 2451.531494,1786.194092 2441.070068,1786.066650 
z"/>
</svg>